<svg width="82" height="82" viewBox="0 0 82 82" fill="none" xmlns="http://www.w3.org/2000/svg">
<circle cx="41" cy="41" r="41" fill="white"/>
<path d="M25.1719 40.4818C24.5235 40.4818 23.9511 40.4818 23.3788 40.4818C21.2832 40.4818 19.1861 40.4833 17.0905 40.4818C16.0512 40.4818 15.7333 39.9373 16.2296 39.0268C17.2611 37.1344 18.2818 35.2374 19.3319 33.3559C19.5475 32.9697 19.5645 32.6393 19.4172 32.2298C17.5698 27.0816 18.8293 21.9272 22.8188 18.2371C27.1077 14.2708 34.1032 13.9017 38.7985 17.3933C39.3631 17.8131 39.9458 17.8369 40.5466 17.4646C46.1974 13.9637 53.0037 14.26 58.1457 18.4759C62.6083 22.135 64.4184 26.9435 63.5622 32.6982C63.4086 33.7282 63.131 34.7302 62.7106 35.681C62.4935 36.1712 62.5571 36.5621 62.8146 37.0212C64.0849 39.2827 65.3243 41.5613 66.5667 43.8384C67.1313 44.8745 66.8242 45.3818 65.6485 45.3818C60.7981 45.3818 55.9462 45.3818 51.0958 45.3818C50.4211 45.3818 50.4304 45.3818 50.6429 46.0162C51.7644 49.3557 51.6759 52.6907 50.5157 55.9946C50.2784 56.6693 50.2923 57.1936 50.6553 57.8264C51.9055 60.0073 53.089 62.2254 54.2958 64.4311C54.8573 65.4564 54.5502 65.9854 53.3791 65.9854C47.7097 65.9885 42.0403 66.021 36.371 65.9776C29.6422 65.9264 23.9372 61.8423 21.9067 55.4362C20.2284 50.1406 21.2832 45.2732 24.8353 40.9735C24.9113 40.8819 24.9919 40.792 25.0664 40.6989C25.0912 40.6679 25.1021 40.6276 25.1734 40.4787L25.1719 40.4818ZM36.6812 20.9531C37.1341 20.4521 37.5653 19.9262 38.0508 19.4578C38.3192 19.2003 38.2199 19.1119 37.9935 18.932C34.5887 16.2144 29.4281 15.8638 25.6744 18.1052C20.7682 21.0368 18.8495 26.6907 20.99 31.9924C21.2351 32.602 21.2289 33.1077 20.9001 33.6863C20.0345 35.2095 19.2171 36.7622 18.3872 38.3055C18.3066 38.4544 18.1546 38.5878 18.2197 38.8003C18.274 38.8127 18.3298 38.8376 18.3857 38.8376C21.1808 38.8407 23.9759 38.8407 26.7695 38.8438C26.9758 38.8438 27.1588 38.8019 27.3264 38.6716C28.5021 37.7626 29.8221 37.1174 31.1933 36.5667C32.0914 36.3061 32.9756 35.9866 33.9155 35.9075C34.4398 35.8625 34.5872 35.7245 34.3809 35.1536C33.3928 32.4221 33.2873 29.627 33.9249 26.7977C34.4104 24.6448 35.3953 22.7291 36.6828 20.9546L36.6812 20.9531ZM48.099 41.3349C48.5101 41.946 48.9522 42.5385 49.3198 43.1745C49.5307 43.5406 49.7758 43.6445 50.1775 43.643C54.8294 43.6305 59.4827 43.6352 64.1346 43.6352H64.7255C64.6092 43.3979 64.5301 43.221 64.4386 43.052C63.3575 41.0758 62.2949 39.0919 61.1828 37.1344C60.8508 36.5497 60.84 36.044 61.1037 35.4421C62.599 32.039 62.6951 28.5784 61.2309 25.1659C59.0748 20.1434 55.2265 17.2288 49.7789 16.6921C45.7615 16.2966 42.2497 17.6383 39.2824 20.4024C35.3472 24.0693 34.021 30.432 36.1926 35.3444C36.2748 35.5306 36.3338 35.6872 36.5959 35.7043C37.4304 35.7586 38.2634 35.847 39.0963 35.9214C42.712 36.7032 45.7165 38.501 48.099 41.3349ZM52.3677 64.335C52.2467 64.0992 52.163 63.9239 52.0699 63.7548C51.0369 61.8671 50.0379 59.9592 48.9522 58.101C48.4992 57.327 48.493 56.674 48.8451 55.8627C49.9976 53.2165 50.2024 50.4648 49.4826 47.6712C48.0261 42.0189 43.3852 37.9457 37.6693 37.3997C33.5603 37.0072 29.9664 38.2667 26.9246 41.0913C22.5287 45.1739 21.4693 52.3929 24.5669 57.5271C27.2705 62.0083 31.2662 64.2915 36.4982 64.3272C41.6091 64.3629 46.7216 64.335 51.8326 64.335H52.3646H52.3677Z" fill="#1C3954"/>
<path d="M48.0991 41.3349C45.7166 38.501 42.7121 36.7032 39.0964 35.9214C37.6554 33.3264 37.1435 30.5794 37.8617 27.6726C39.6191 20.5622 47.2615 17.0737 53.7995 20.373C57.6479 22.315 60.0924 26.7109 59.7388 30.9734C59.5945 32.7122 59.0935 34.3346 58.3149 35.8765C58.0977 36.3046 58.1272 36.6288 58.3598 37.0336C59.0578 38.2419 59.7186 39.4704 60.3825 40.6974C60.4818 40.8788 60.6617 41.0433 60.6074 41.2868C60.5624 41.3023 60.5268 41.3256 60.4895 41.3256C56.3589 41.3302 52.2298 41.3333 48.0991 41.3349ZM49.1399 28.6063C47.9037 28.6063 46.6659 28.6063 45.4296 28.6063C44.8914 28.6063 44.3516 28.6001 43.8134 28.6125C43.3511 28.6234 43.0502 28.8499 43.0301 29.3354C43.0114 29.8209 43.3031 30.0613 43.756 30.1218C43.953 30.1482 44.1531 30.1419 44.3532 30.1419C47.3251 30.1419 50.2971 30.1419 53.269 30.1419C53.6878 30.1419 54.1082 30.159 54.5239 30.1171C55.0094 30.069 55.301 29.7836 55.2436 29.2749C55.1847 28.7599 54.8217 28.6048 54.3455 28.6048C52.6098 28.6094 50.8741 28.6063 49.1399 28.6048V28.6063ZM49.1384 24.6665C47.443 24.6665 45.7461 24.6634 44.0507 24.6665C43.3651 24.668 43.0425 24.9085 43.027 25.4048C43.0099 25.9229 43.3589 26.2083 44.0554 26.2098C47.4477 26.2145 50.8384 26.2145 54.2307 26.2098C54.9024 26.2098 55.2405 25.9508 55.2576 25.4622C55.2746 24.9441 54.9272 24.668 54.2276 24.6665C52.5323 24.6618 50.8353 24.6665 49.1399 24.6665H49.1384ZM46.6023 34.1454C47.5206 34.1454 48.4388 34.1454 49.3571 34.1454C49.8411 34.1454 50.2505 34.0275 50.2862 33.4505C50.3172 32.9603 49.9822 32.6253 49.3974 32.6191C47.5407 32.6005 45.6856 32.602 43.8289 32.6191C43.2395 32.6237 42.8796 32.965 42.9261 33.4303C42.9804 33.9748 43.3449 34.1516 43.8491 34.1485C44.7673 34.1408 45.6856 34.147 46.6039 34.147L46.6023 34.1454Z" fill="#4FBF9F"/>
<path d="M52.3678 64.335H51.8357C46.7248 64.335 41.6123 64.3629 36.5013 64.3272C31.2694 64.2915 27.2737 62.0083 24.57 57.5271C21.4724 52.3928 22.5319 45.1723 26.9278 41.0913C29.968 38.2683 33.5619 37.0072 37.6724 37.3997C43.3883 37.9457 48.0277 42.0189 49.4858 47.6712C50.2055 50.4663 50.0007 53.218 48.8483 55.8627C48.4946 56.6739 48.5024 57.327 48.9553 58.101C50.0411 59.9592 51.04 61.8656 52.0731 63.7548C52.1661 63.9239 52.2499 64.0992 52.3709 64.335H52.3678ZM41.7007 62.0455C43.697 62.0455 45.6933 62.0455 47.6896 62.0455C48.3767 62.0455 48.3767 62.0424 48.0339 61.4188C47.4476 60.3532 46.9094 59.255 46.2563 58.2313C45.777 57.4774 45.7708 56.8678 46.1757 56.0535C47.3576 53.6818 47.7066 51.1612 47.1467 48.5476C46.033 43.3544 41.1888 39.5263 35.611 39.8411C30.1122 40.1514 25.4294 44.7908 25.1951 50.319C24.9221 56.7593 29.8656 61.9772 36.3105 62.0408C38.1067 62.0579 39.9029 62.0439 41.7007 62.0439V62.0455Z" fill="#FDFEFE"/>
<path d="M48.099 41.3349C52.2297 41.3318 56.3588 41.3287 60.4894 41.3256C60.5266 41.3256 60.5623 41.3023 60.6073 41.2868C60.6616 41.0433 60.4816 40.8789 60.3824 40.6974C59.7185 39.4704 59.0562 38.2419 58.3597 37.0336C58.127 36.6303 58.0976 36.3061 58.3147 35.8765C59.0934 34.3347 59.5944 32.7122 59.7387 30.9734C60.0923 26.7109 57.6477 22.315 53.7994 20.373C47.2614 17.0737 39.619 20.5622 37.8616 27.6726C37.1434 30.5794 37.6553 33.3264 39.0963 35.9215C38.2633 35.847 37.4304 35.7586 36.5959 35.7043C36.3353 35.6872 36.2748 35.5306 36.1926 35.3444C34.0225 30.432 35.3472 24.0693 39.2824 20.4024C42.2482 17.6383 45.7615 16.2951 49.7789 16.6922C55.2264 17.2288 59.0748 20.1434 61.2308 25.1659C62.6967 28.5769 62.5989 32.039 61.1037 35.4422C60.84 36.044 60.8508 36.5497 61.1828 37.1344C62.2949 39.092 63.359 41.0774 64.4386 43.052C64.5316 43.2211 64.6092 43.3994 64.7255 43.6352H64.1345C59.4827 43.6352 54.8293 43.6306 50.1775 43.643C49.7758 43.643 49.5307 43.5406 49.3197 43.1745C48.9521 42.5386 48.5101 41.946 48.099 41.3349Z" fill="#FDFEFE"/>
<path d="M36.6813 20.953C35.3939 22.7275 34.4089 24.6432 33.9234 26.7961C33.2859 29.6254 33.3914 32.4205 34.3795 35.152C34.5858 35.7229 34.4384 35.8609 33.9141 35.9059C32.9742 35.985 32.09 36.3061 31.1919 36.5651C30.9825 36.3449 30.708 36.4131 30.4567 36.4131C27.8818 36.4085 25.3069 36.4038 22.7336 36.4178C22.2947 36.4193 22.1954 36.3154 22.4187 35.9168C22.8081 35.2203 23.1028 34.4618 23.5619 33.8181C24.0521 33.1325 23.9435 32.5555 23.5821 31.8916C22.6297 30.1357 22.3055 28.2651 22.653 26.2858C23.1835 23.2658 24.8711 21.0818 27.6197 19.8285C30.8212 18.3689 33.8707 18.8714 36.6798 20.953H36.6813ZM25.6559 25.3288C25.6699 26.3556 25.5396 26.2083 26.3369 26.2083C27.4056 26.2083 27.2908 26.3572 27.2924 25.473C27.2939 24.4384 27.4056 24.5687 26.5696 24.561C25.6559 24.5532 25.6559 24.5594 25.6559 25.3288ZM29.9696 25.3691C29.9696 25.9306 30.2106 26.2114 30.6924 26.2114C31.6092 26.2114 31.6138 26.2114 31.6092 25.4311C31.6014 24.4322 31.7177 24.5687 30.8445 24.561C29.9712 24.5532 29.9712 24.5594 29.9712 25.3691H29.9696ZM26.5075 29.3508C25.9408 29.3508 25.657 29.5887 25.6559 30.0644C25.6559 31.0028 25.6559 31.009 26.3415 31.0012C27.4072 30.9904 27.2924 31.1486 27.2924 30.2598C27.2924 29.2081 27.4118 29.3679 26.5075 29.3508ZM29.9696 30.1652C29.9696 30.7246 30.2116 31.0043 30.6956 31.0043C31.6092 31.0043 31.6138 31.0043 31.6076 30.2195C31.5999 29.2236 31.7162 29.3601 30.8383 29.3524C29.9681 29.3446 29.9681 29.3508 29.9681 30.1652H29.9696Z" fill="#E0E5E8"/>
<path d="M36.6812 20.953C33.8736 18.8714 30.8226 18.3673 27.621 19.8285C24.874 21.0818 23.1864 23.2673 22.6543 26.2858C22.3069 28.2651 22.6295 30.1357 23.5835 31.8916C23.9449 32.557 24.0535 33.1325 23.5633 33.8181C23.1042 34.4618 22.8095 35.2203 22.4201 35.9168C22.1968 36.3154 22.2945 36.4193 22.735 36.4178C25.3099 36.4054 27.8847 36.41 30.4581 36.4131C30.7109 36.4131 30.9839 36.3464 31.1933 36.5651C29.8221 37.1158 28.5021 37.761 27.3263 38.67C27.1588 38.8003 26.9758 38.8422 26.7695 38.8422C23.9743 38.8391 21.1792 38.8391 18.3856 38.836C18.3298 38.836 18.274 38.8112 18.2197 38.7987C18.1545 38.5862 18.3065 38.4528 18.3872 38.3039C19.217 36.759 20.0345 35.2079 20.9 33.6847C21.2289 33.1061 21.2366 32.6005 20.99 31.9909C18.851 26.6907 20.7682 21.0353 25.6744 18.1036C29.4281 15.8623 34.5887 16.2113 37.9934 18.9304C38.2199 19.1103 38.3192 19.1987 38.0508 19.4562C37.5653 19.9247 37.1341 20.4505 36.6812 20.9515V20.953Z" fill="#FDFEFE"/>
<path d="M49.1398 28.6063C50.8755 28.6063 52.6112 28.6094 54.3454 28.6063C54.8216 28.6063 55.1861 28.7599 55.2435 29.2764C55.3008 29.7867 55.0092 30.0721 54.5237 30.1187C54.108 30.159 53.6877 30.1419 53.2689 30.1435C50.2969 30.1435 47.325 30.1435 44.353 30.1435C44.1545 30.1435 43.9528 30.1497 43.7558 30.1233C43.3044 30.0628 43.0113 29.8224 43.0299 29.3369C43.0485 28.853 43.3494 28.6265 43.8132 28.6141C44.3514 28.6017 44.8897 28.6079 45.4295 28.6079C46.6657 28.6079 47.9035 28.6079 49.1398 28.6079V28.6063Z" fill="#1C3954"/>
<path d="M49.1382 24.665C50.8336 24.665 52.5306 24.6619 54.2259 24.665C54.927 24.6665 55.2729 24.9426 55.2559 25.4607C55.2388 25.9493 54.9022 26.2068 54.229 26.2083C50.8367 26.213 47.446 26.213 44.0537 26.2083C43.3572 26.2083 43.0082 25.9229 43.0253 25.4033C43.0408 24.9069 43.365 24.6665 44.049 24.665C45.7444 24.6603 47.4413 24.665 49.1367 24.665H49.1382Z" fill="#1C3954"/>
<path d="M46.6022 34.1454C45.6839 34.1454 44.7656 34.1407 43.8474 34.1469C43.3432 34.15 42.9787 33.9732 42.9244 33.4287C42.8779 32.9634 43.2378 32.6222 43.8272 32.6175C45.6839 32.602 47.539 32.6004 49.3957 32.6175C49.9805 32.6237 50.3156 32.9572 50.2845 33.4489C50.2489 34.0259 49.8394 34.1438 49.3554 34.1438C48.4371 34.1438 47.5189 34.1438 46.6006 34.1438L46.6022 34.1454Z" fill="#1C3954"/>
<path d="M41.7006 62.0455C39.9044 62.0455 38.1067 62.061 36.3105 62.0424C29.8655 61.9788 24.9221 56.7593 25.1951 50.3205C25.4293 44.7908 30.1122 40.1529 35.6109 39.8427C41.1888 39.5278 46.0329 43.356 47.1466 48.5492C47.7066 51.1628 47.356 53.6834 46.1756 56.0551C45.7708 56.8678 45.777 57.479 46.2563 58.2328C46.9093 59.2566 47.4476 60.3548 48.0339 61.4204C48.3767 62.0439 48.3767 62.0455 47.6895 62.0471C45.6932 62.0471 43.6969 62.0471 41.7006 62.0471V62.0455ZM36.1879 47.6697C36.447 47.6697 36.706 47.6697 36.9651 47.6697C38.4603 47.6697 39.9541 47.6697 41.4494 47.6697C41.7859 47.6697 42.1008 47.5859 42.259 47.2664C42.3893 47.0042 42.3537 46.7188 42.183 46.4706C41.9628 46.1527 41.6262 46.1232 41.2772 46.1232C37.8895 46.1232 34.5019 46.1232 31.1127 46.1247C30.424 46.1247 30.0656 46.4148 30.0827 46.9251C30.0998 47.4215 30.4255 47.665 31.1033 47.6666C32.7972 47.6712 34.491 47.6666 36.1848 47.6666L36.1879 47.6697ZM36.1988 51.6095C36.7774 51.6095 37.3559 51.6095 37.9345 51.6095C39.1118 51.6095 40.2876 51.6142 41.4649 51.6049C41.8139 51.6018 42.1753 51.5351 42.2916 51.1473C42.3862 50.834 42.3381 50.5082 42.0698 50.2663C41.8433 50.0615 41.5626 50.0615 41.2803 50.0615C37.8895 50.0615 34.4988 50.0615 31.108 50.0646C30.9498 50.0646 30.7823 50.06 30.6334 50.1049C30.2968 50.2058 30.0936 50.4369 30.0858 50.8029C30.0781 51.1613 30.2378 51.428 30.5837 51.5304C30.7885 51.5909 31.0149 51.6049 31.2305 51.6064C32.8856 51.6126 34.5422 51.6095 36.1972 51.6095H36.1988ZM33.686 55.6161C34.6244 55.6161 35.5628 55.6269 36.5013 55.613C37.0953 55.6037 37.4475 55.295 37.418 54.8235C37.3839 54.2588 37.0023 54.0991 36.5106 54.0991C34.674 54.0991 32.8375 54.0913 31.001 54.1022C30.3852 54.1053 30.0594 54.3953 30.0889 54.8824C30.123 55.4408 30.4938 55.6145 30.9917 55.6161C31.8898 55.6176 32.7879 55.6161 33.686 55.6161Z" fill="#80B6FC"/>
<path d="M25.6573 25.3288C25.6573 24.5594 25.6573 24.5532 26.5709 24.561C27.4054 24.5672 27.2953 24.4384 27.2937 25.473C27.2922 26.3587 27.4069 26.2083 26.3382 26.2083C25.5394 26.2083 25.6712 26.3556 25.6573 25.3288Z" fill="#1C3954"/>
<path d="M29.9696 25.3691C29.9696 24.5579 29.9696 24.5533 30.8429 24.561C31.7161 24.5688 31.6014 24.4338 31.6076 25.4312C31.6138 26.213 31.6076 26.213 30.6908 26.2114C30.209 26.2114 29.968 25.9307 29.968 25.3691H29.9696Z" fill="#1C3954"/>
<path d="M26.5073 29.3509C27.4116 29.368 27.2938 29.2082 27.2922 30.2599C27.2922 31.1486 27.407 30.9904 26.3414 31.0013C25.6558 31.009 25.6558 31.0013 25.6558 30.0644C25.6558 29.5887 25.9396 29.3509 26.5073 29.3509Z" fill="#1C3954"/>
<path d="M29.9695 30.1652C29.9695 29.3509 29.9695 29.3447 30.8397 29.3524C31.7161 29.3602 31.6013 29.2237 31.609 30.2195C31.6152 31.0044 31.609 31.0044 30.697 31.0044C30.213 31.0044 29.971 30.7247 29.971 30.1652H29.9695Z" fill="#1C3954"/>
<path d="M36.1879 47.6697C34.4941 47.6697 32.8003 47.6728 31.1064 47.6697C30.4286 47.6682 30.1029 47.4246 30.0858 46.9283C30.0687 46.4164 30.4255 46.1279 31.1157 46.1279C34.5034 46.1248 37.8911 46.1279 41.2803 46.1263C41.6277 46.1263 41.9659 46.1543 42.1861 46.4738C42.3567 46.7204 42.3909 47.0074 42.2621 47.2695C42.1039 47.5891 41.789 47.6728 41.4524 47.6728C39.9572 47.6728 38.4634 47.6728 36.9681 47.6728C36.7091 47.6728 36.4501 47.6728 36.191 47.6728L36.1879 47.6697Z" fill="#1C3954"/>
<path d="M36.1989 51.6111C34.5438 51.6111 32.8872 51.6142 31.2322 51.608C31.015 51.608 30.7901 51.594 30.5853 51.532C30.2394 51.4296 30.0797 51.1628 30.0874 50.8045C30.0952 50.4384 30.2984 50.2073 30.635 50.1065C30.7839 50.0615 30.9499 50.0662 31.1096 50.0662C34.5004 50.0646 37.8911 50.0662 41.2819 50.063C41.5642 50.063 41.845 50.0631 42.0714 50.2678C42.3398 50.5098 42.3863 50.8355 42.2932 51.1488C42.1769 51.5366 41.8155 51.6033 41.4665 51.6064C40.2892 51.6157 39.1134 51.6111 37.9361 51.6111C37.3576 51.6111 36.779 51.6111 36.2004 51.6111H36.1989Z" fill="#1C3954"/>
<path d="M33.686 55.6161C32.7879 55.6161 31.8898 55.6161 30.9917 55.6161C30.4938 55.6161 30.1246 55.4408 30.0889 54.8824C30.0579 54.3954 30.3837 54.1053 31.001 54.1022C32.8375 54.0914 34.6741 54.0976 36.5106 54.0991C37.0039 54.0991 37.3854 54.2589 37.418 54.8235C37.4459 55.2966 37.0954 55.6053 36.5013 55.613C35.5629 55.627 34.6244 55.6161 33.686 55.6161Z" fill="#1C3954"/>
</svg>
