<svg width="134" height="24" viewBox="0 0 134 24" fill="none" xmlns="http://www.w3.org/2000/svg">
<path fill-rule="evenodd" clip-rule="evenodd" d="M124.741 12.838C124.741 14.0073 125.127 14.9878 125.919 15.7796C126.711 16.5525 127.714 16.9485 128.89 16.9485C130.065 16.9485 131.049 16.5525 131.841 15.7796C132.632 14.9878 133.036 14.0073 133.036 12.838C133.036 11.6691 132.632 10.6886 131.841 9.91574C131.049 9.12329 130.065 8.72728 128.89 8.72728C127.714 8.72728 126.711 9.12329 125.919 9.91574C125.127 10.6886 124.741 11.6691 124.741 12.838ZM123.777 12.838C123.777 11.4241 124.26 10.2363 125.244 9.27448C126.228 8.31313 127.442 7.84099 128.89 7.84099C130.337 7.84099 131.532 8.31313 132.516 9.27448C133.5 10.2363 134 11.4241 134 12.838C134 14.2525 133.5 15.4399 132.516 16.4017C131.532 17.3635 130.337 17.8345 128.89 17.8345C127.442 17.8345 126.228 17.3635 125.244 16.4017C124.26 15.4399 123.777 14.2525 123.777 12.838ZM120.075 17.5895V8.97252H118.859V8.08623H120.075V4.44767H121.039V8.08623H123.315V8.97252H121.039V17.5895H120.075ZM109.216 8.08623H110.18V13.8938C110.18 15.8549 111.317 16.9109 113.228 16.9109C115.137 16.9109 116.274 15.8549 116.274 13.8938V8.08623H117.238V13.9883C117.238 16.4207 115.677 17.7972 113.228 17.7972C110.778 17.7972 109.216 16.4207 109.216 13.9883V8.08623ZM99.146 13.1022H105.087L102.116 5.95602L99.146 13.1022ZM96.1949 17.5895L101.73 4.44767H102.522L108.057 17.5895H106.979L105.473 14.0073H98.7598L97.2757 17.5895H96.1949ZM92.7434 11.8197C92.7434 11.2541 92.491 10.7641 92.0099 10.3681C91.5267 9.95306 90.968 9.74578 90.2928 9.74578C89.5788 9.74578 88.9424 9.95306 88.4225 10.3491C87.9004 10.7449 87.6114 11.2352 87.5531 11.8197H92.7434ZM85.1996 12.838C85.1996 11.3296 85.6828 10.123 86.6277 9.1992C87.592 8.27496 88.8065 7.82264 90.2928 7.82264C91.7014 7.82264 92.8577 8.27496 93.7465 9.1992C94.6525 10.123 95.0969 11.2541 95.0969 12.6117C95.0969 12.8949 95.0775 13.1583 95.0581 13.4035H87.4949C87.5725 14.9123 88.7116 15.8924 90.4287 15.8924C91.4296 15.8924 92.299 15.5346 93.0519 14.7989L94.4411 16.1191C93.3409 17.2498 91.9905 17.8156 90.351 17.8156C88.8259 17.8156 87.5726 17.3635 86.6277 16.477C85.6828 15.5909 85.1996 14.4031 85.1996 12.9133V12.838ZM80.3588 17.5895V10.1418H79.1055V8.08623H80.3588V4.44767H82.6735V8.08623H84.7768V10.1418H82.6735V17.5895H80.3588ZM74.7846 14.9123C75.3628 14.3651 75.654 13.6678 75.654 12.838C75.654 12.0086 75.3628 11.3104 74.7846 10.7641C74.2259 10.2173 73.5119 9.93409 72.6835 9.93409C71.853 9.93409 71.1778 10.2173 70.619 10.7641C70.0776 11.3104 69.8079 12.0086 69.8079 12.838C69.8079 13.6678 70.0776 14.3651 70.619 14.9123C71.1778 15.4591 71.853 15.7417 72.6835 15.7417C73.5119 15.7417 74.2259 15.4591 74.7846 14.9123ZM75.4792 9.46279V8.08623H77.7939V17.5895H75.4792V16.2127C75.1513 17.137 73.9757 17.7972 72.3729 17.7972C71.0052 17.7972 69.8468 17.3259 68.9019 16.3827C67.9765 15.4211 67.5127 14.2525 67.5127 12.838C67.5127 11.4241 67.9765 10.2546 68.9019 9.31202C69.8468 8.35045 71.0052 7.87916 72.3729 7.87916C73.9757 7.87916 75.1513 8.53918 75.4792 9.46279ZM61.3021 17.5895L57.1365 8.08623H59.5288L62.2858 14.5348L65.0254 8.08623H67.4156L63.25 17.5895H61.3021ZM53.7605 17.5895H56.0751V8.08623H53.7605V17.5895ZM53.5296 5.63529C53.5296 4.88101 54.1466 4.29626 54.9167 4.29626C55.6696 4.29626 56.2866 4.88101 56.2866 5.63529C56.2866 6.38936 55.6696 6.97389 54.9167 6.97389C54.1466 6.97389 53.5296 6.38936 53.5296 5.63529ZM46.3332 17.5895V8.08623H48.6285V9.50075C49.0923 8.50122 50.1536 7.89814 51.5234 7.89814C51.7931 7.89814 52.0239 7.91669 52.2181 7.95444V10.1418C51.9268 10.0855 51.6011 10.0473 51.2538 10.0473C49.6531 10.0473 48.6285 11.0281 48.6285 12.5925V17.5895H46.3332ZM37.6353 10.8583H40.2391C41.3198 10.8583 42.3424 10.0855 42.3424 8.72728C42.3424 7.35135 41.3198 6.57809 40.2391 6.57809H37.6353V10.8583ZM35.2236 17.5895V4.44767H40.3556C41.4924 4.44767 42.5149 4.84347 43.4037 5.63529C44.2903 6.42711 44.7347 7.46417 44.7347 8.72728C44.7347 9.95307 44.2903 10.9716 43.4037 11.7819C42.5344 12.5925 41.5118 12.9885 40.3556 12.9885H37.6353V17.5895H35.2236Z" fill="white"/>
<mask id="mask0" mask-type="alpha" maskUnits="userSpaceOnUse" x="6" y="18" width="23" height="6">
<path d="M9.77932 18.4894L6.52625 24H25.0955L28.3507 18.4894H9.77932Z" fill="white"/>
</mask>
<g mask="url(#mask0)">
<path fill-rule="evenodd" clip-rule="evenodd" d="M9.77932 18.4894L6.52625 24H25.0955L28.3507 18.4894H9.77932Z" fill="url(#paint0_linear)"/>
</g>
<mask id="mask1" mask-type="alpha" maskUnits="userSpaceOnUse" x="14" y="0" width="15" height="19">
<path d="M21.8402 18.4889H28.3507L17.4287 0L14.1757 5.51046L21.8402 18.4889Z" fill="white"/>
</mask>
<g mask="url(#mask1)">
<path fill-rule="evenodd" clip-rule="evenodd" d="M21.8402 18.4889H28.3507L17.4287 0L14.1757 5.51046L21.8402 18.4889Z" fill="url(#paint1_linear)"/>
</g>
<mask id="mask2" mask-type="alpha" maskUnits="userSpaceOnUse" x="0" y="0" width="18" height="24">
<path d="M14.1757 11.0481L11.4166 15.7204H16.9347L14.1757 11.0481ZM17.4287 0L3.25372 23.9995L0 18.4889L10.9204 0H17.4287Z" fill="white"/>
</mask>
<g mask="url(#mask2)">
<path fill-rule="evenodd" clip-rule="evenodd" d="M14.1757 11.0481L11.4166 15.7204H16.9347L14.1757 11.0481ZM17.4287 0L3.25372 23.9995L0 18.4889L10.9204 0H17.4287Z" fill="url(#paint2_linear)"/>
</g>
<defs>
<linearGradient id="paint0_linear" x1="28.3507" y1="21.2448" x2="6.52625" y2="21.2448" gradientUnits="userSpaceOnUse">
<stop stop-color="#24A5CA"/>
<stop offset="1" stop-color="#5ABFCA"/>
</linearGradient>
<linearGradient id="paint1_linear" x1="14.1757" y1="9.24454" x2="28.3506" y2="9.24454" gradientUnits="userSpaceOnUse">
<stop stop-color="#24A5CA"/>
<stop offset="1" stop-color="#5ABFCA"/>
</linearGradient>
<linearGradient id="paint2_linear" x1="8.71577" y1="23.9996" x2="8.71577" y2="-0.000190256" gradientUnits="userSpaceOnUse">
<stop stop-color="#24A5CA"/>
<stop offset="1" stop-color="#5ABFCA"/>
</linearGradient>
</defs>
</svg>
