<svg width="132" height="45" viewBox="0 0 132 45" fill="none" xmlns="http://www.w3.org/2000/svg">
<path d="M121.298 0.689596H10.5011C10.0972 0.689596 9.69821 0.689596 9.29541 0.691792C8.95823 0.693989 8.62374 0.70037 8.28332 0.705741C7.54377 0.714419 6.80596 0.779299 6.07631 0.899817C5.34767 1.02296 4.64187 1.25512 3.98276 1.58844C3.32445 1.92458 2.72294 2.36136 2.20004 2.88293C1.6744 3.40304 1.23623 4.00421 0.902399 4.66333C0.567641 5.32114 0.335519 6.02605 0.214049 6.7537C0.0914248 7.48044 0.0254396 8.21555 0.0166856 8.95245C0.00646498 9.28918 0.00538565 9.62703 0 9.96381V35.3496C0.00538565 35.6907 0.00646498 36.021 0.0166856 36.3621C0.0254423 37.099 0.0914275 37.8341 0.214049 38.5608C0.335183 39.2889 0.567319 39.9942 0.902399 40.6522C1.23608 41.3092 1.67431 41.908 2.20004 42.4252C2.72096 42.9491 3.32286 43.3861 3.98276 43.7197C4.64186 44.0539 5.34759 44.2875 6.07631 44.4125C6.80609 44.5321 7.54382 44.597 8.28332 44.6067C8.62374 44.6141 8.95823 44.6184 9.29541 44.6184C9.6982 44.6206 10.0973 44.6206 10.5011 44.6206H121.298C121.694 44.6206 122.096 44.6206 122.492 44.6184C122.827 44.6184 123.172 44.6141 123.507 44.6067C124.245 44.5975 124.982 44.5326 125.71 44.4125C126.441 44.2866 127.149 44.0531 127.811 43.7197C128.471 43.3859 129.072 42.9489 129.593 42.4252C130.117 41.9059 130.556 41.3076 130.894 40.6522C131.227 39.9937 131.456 39.2884 131.576 38.5608C131.699 37.834 131.767 37.0991 131.78 36.3621C131.785 36.021 131.785 35.6907 131.785 35.3496C131.793 34.9506 131.793 34.5538 131.793 34.1483V11.1629C131.793 10.7607 131.793 10.3617 131.785 9.96381C131.785 9.62703 131.785 9.28918 131.78 8.95241C131.767 8.21545 131.699 7.48049 131.576 6.75366C131.456 6.02643 131.226 5.32158 130.894 4.66329C130.214 3.34215 129.136 2.26675 127.811 1.58834C127.149 1.25583 126.441 1.02374 125.71 0.899718C124.982 0.778669 124.245 0.713766 123.507 0.705587C123.172 0.700227 122.827 0.693791 122.492 0.69165C122.096 0.689453 121.694 0.689453 121.298 0.689453V0.689596Z" fill="black"/>
<path d="M9.30096 43.6599C8.9654 43.6599 8.63794 43.6556 8.30501 43.6481C7.61532 43.6392 6.92724 43.5793 6.24642 43.469C5.61159 43.36 4.9966 43.1572 4.42175 42.8672C3.85218 42.5797 3.33268 42.2028 2.88316 41.7507C2.42713 41.304 2.04746 40.7859 1.75921 40.217C1.46778 39.6443 1.26609 39.0305 1.16117 38.3969C1.04787 37.7161 0.986565 37.0277 0.977794 36.3377C0.970811 36.106 0.96167 35.3348 0.96167 35.3348V9.96404C0.96167 9.96404 0.971406 9.20468 0.977849 8.98159C0.986248 8.29262 1.04719 7.60529 1.16016 6.92554C1.26527 6.29021 1.46711 5.67462 1.7587 5.1001C2.0459 4.53153 2.42345 4.01306 2.87674 3.56476C3.32951 3.11221 3.85067 2.73328 4.42122 2.44181C4.99474 2.15283 5.60856 1.95145 6.24211 1.84441C6.92517 1.73301 7.61564 1.67278 8.30772 1.66423L9.3015 1.65082H122.487L123.492 1.66477C124.178 1.67289 124.862 1.73258 125.539 1.84333C126.179 1.95172 126.799 2.1545 127.379 2.44503C128.522 3.03243 129.452 3.96177 130.039 5.10278C130.326 5.67334 130.525 6.2839 130.628 6.91374C130.743 7.59907 130.807 8.29181 130.82 8.98642C130.823 9.29745 130.823 9.63155 130.823 9.96404C130.832 10.3759 130.832 10.7679 130.832 11.1631V34.1486C130.832 34.5476 130.832 34.9369 130.823 35.3294C130.823 35.6866 130.823 36.0138 130.819 36.3505C130.806 37.0327 130.743 37.7131 130.631 38.3862C130.528 39.0243 130.327 39.6429 130.036 40.2203C129.746 40.7831 129.368 41.2967 128.917 41.7422C128.467 42.1966 127.947 42.5758 127.376 42.8652C126.798 43.1573 126.178 43.3609 125.539 43.469C124.858 43.5799 124.17 43.6398 123.48 43.6481C123.158 43.6556 122.82 43.6599 122.492 43.6599L121.298 43.6621L9.30096 43.6599Z" fill="white"/>
<path d="M27.5306 22.5336C27.5429 21.5804 27.7968 20.6457 28.2687 19.8166C28.7406 18.9875 29.4151 18.2909 30.2296 17.7916C29.7122 17.0547 29.0296 16.4484 28.2362 16.0206C27.4427 15.5928 26.5601 15.3554 25.6585 15.3273C23.7352 15.126 21.8708 16.4749 20.8907 16.4749C19.8917 16.4749 18.3828 15.3473 16.7579 15.3806C15.7069 15.4145 14.6826 15.7193 13.7848 16.2652C12.887 16.8112 12.1464 17.5798 11.6351 18.4961C9.4201 22.3203 11.0723 27.9406 13.194 31.0318C14.2556 32.5455 15.4963 34.2363 17.1197 34.1764C18.7083 34.1106 19.3016 33.1662 21.2192 33.1662C23.119 33.1662 23.6756 34.1764 25.332 34.1382C27.0366 34.1106 28.1106 32.6178 29.1349 31.0898C29.8977 30.0113 30.4846 28.8193 30.874 27.5579C29.8836 27.1402 29.0385 26.441 28.4439 25.5476C27.8494 24.6541 27.5317 23.6059 27.5306 22.5336Z" fill="black"/>
<path d="M24.4017 13.2944C25.3312 12.1818 25.7891 10.7517 25.6782 9.3078C24.2582 9.45652 22.9466 10.1333 22.0046 11.2032C21.544 11.7259 21.1912 12.334 20.9665 12.9927C20.7417 13.6515 20.6494 14.3479 20.6947 15.0423C21.4049 15.0495 22.1076 14.896 22.7497 14.5933C23.3918 14.2905 23.9567 13.8464 24.4017 13.2944Z" fill="black"/>
<path d="M46.5896 30.4961H41.3764L40.1245 34.1824H37.9164L42.8542 20.544H45.1483L50.0862 34.1824H47.8404L46.5896 30.4961ZM41.9163 28.795H46.0486L44.0115 22.8124H43.9545L41.9163 28.795Z" fill="black"/>
<path d="M60.7501 29.2115C60.7501 32.3015 59.0916 34.2867 56.5888 34.2867C55.9548 34.3198 55.3243 34.1742 54.7694 33.8665C54.2145 33.5588 53.7578 33.1016 53.4514 32.5471H53.4041V37.4722H51.3573V24.2392H53.3385V25.8931H53.3761C53.6965 25.3412 54.161 24.8863 54.7201 24.5768C55.2792 24.2673 55.912 24.1146 56.5511 24.1352C59.0819 24.1352 60.7501 26.1301 60.7501 29.2115ZM58.6463 29.2115C58.6463 27.1984 57.603 25.8749 56.0112 25.8749C54.4474 25.8749 53.3955 27.2262 53.3955 29.2115C53.3955 31.215 54.4474 32.5568 56.0112 32.5568C57.603 32.5568 58.6463 31.2429 58.6463 29.2115H58.6463Z" fill="black"/>
<path d="M71.7255 29.2115C71.7255 32.3015 70.0664 34.2867 67.5636 34.2867C66.9296 34.3198 66.2991 34.1742 65.7442 33.8665C65.1894 33.5588 64.7326 33.1016 64.4263 32.5471H64.3789V37.4722H62.3322V24.2392H64.3133V25.8931H64.351C64.6714 25.3412 65.1359 24.8863 65.695 24.5768C66.254 24.2673 66.8868 24.1146 67.526 24.1352C70.0568 24.1352 71.7255 26.1301 71.7255 29.2115ZM69.6212 29.2115C69.6212 27.1984 68.5779 25.8749 66.9861 25.8749C65.4222 25.8749 64.3703 27.2262 64.3703 29.2115C64.3703 31.215 65.4222 32.5568 66.9861 32.5568C68.5779 32.5568 69.6212 31.2429 69.6212 29.2115Z" fill="black"/>
<path d="M78.9781 30.3828C79.1298 31.7352 80.4474 32.6232 82.2478 32.6232C83.973 32.6232 85.2142 31.7352 85.2142 30.5157C85.2142 29.4571 84.4656 28.8233 82.6931 28.3889L80.9206 27.9631C78.4092 27.3582 77.2433 26.1869 77.2433 24.2864C77.2433 21.9333 79.2997 20.317 82.2188 20.317C85.1098 20.317 87.091 21.9333 87.1577 24.2864H85.0915C84.9679 22.9254 83.8396 22.1038 82.1908 22.1038C80.542 22.1038 79.4137 22.935 79.4137 24.1448C79.4137 25.1091 80.1344 25.6764 81.8972 26.1108L83.404 26.4797C86.2101 27.1415 87.3749 28.2655 87.3749 30.2604C87.3749 32.812 85.3378 34.41 82.0961 34.41C79.0631 34.41 77.0152 32.8495 76.8829 30.3827L78.9781 30.3828Z" fill="black"/>
<path d="M91.794 21.8863V24.2394H93.6902V25.8557H91.794V31.3375C91.794 32.1891 92.1737 32.5859 93.0072 32.5859C93.2323 32.582 93.4571 32.5662 93.6805 32.5387V34.1453C93.3057 34.2152 92.9248 34.2468 92.5436 34.2397C90.5249 34.2397 89.7375 33.4836 89.7375 31.5552V25.8557H88.2877V24.2394H89.7375V21.8863H91.794Z" fill="black"/>
<path d="M94.7875 29.2118C94.7875 26.0832 96.6353 24.1172 99.5166 24.1172C102.408 24.1172 104.247 26.0832 104.247 29.2118C104.247 32.349 102.417 34.3063 99.5166 34.3063C96.617 34.3063 94.7875 32.3489 94.7875 29.2118ZM102.161 29.2118C102.161 27.0656 101.175 25.799 99.5166 25.799C97.8581 25.799 96.8719 27.0753 96.8719 29.2118C96.8719 31.3665 97.8581 32.6235 99.5166 32.6235C101.175 32.6235 102.161 31.3665 102.161 29.2118H102.161Z" fill="black"/>
<path d="M105.934 24.2391H107.886V25.9316H107.934C108.066 25.403 108.376 24.9359 108.813 24.6087C109.25 24.2815 109.786 24.1143 110.332 24.1351C110.568 24.1343 110.803 24.1598 111.033 24.2112V26.1204C110.736 26.0296 110.425 25.988 110.114 25.997C109.816 25.985 109.52 26.0373 109.245 26.1503C108.97 26.2633 108.722 26.4343 108.52 26.6516C108.317 26.869 108.164 27.1275 108.071 27.4094C107.978 27.6913 107.947 27.9899 107.981 28.2847V34.1826H105.934L105.934 24.2391Z" fill="black"/>
<path d="M120.471 31.2625C120.195 33.0676 118.432 34.3063 116.177 34.3063C113.276 34.3063 111.476 32.3683 111.476 29.259C111.476 26.1401 113.286 24.1172 116.091 24.1172C118.85 24.1172 120.585 26.0071 120.585 29.022V29.7212H113.542V29.8446C113.509 30.2105 113.555 30.5792 113.677 30.9261C113.798 31.2729 113.992 31.5901 114.246 31.8565C114.499 32.1229 114.807 32.3324 115.148 32.4711C115.489 32.6098 115.856 32.6746 116.224 32.6611C116.708 32.7063 117.193 32.5945 117.608 32.3426C118.023 32.0906 118.345 31.7118 118.527 31.2625L120.471 31.2625ZM113.552 28.2948H118.537C118.555 27.9657 118.505 27.6365 118.39 27.3276C118.274 27.0188 118.096 26.737 117.867 26.5C117.637 26.2631 117.361 26.076 117.055 25.9506C116.75 25.8251 116.421 25.764 116.091 25.7711C115.758 25.7691 115.427 25.833 115.119 25.959C114.81 26.085 114.53 26.2707 114.294 26.5053C114.058 26.74 113.871 27.0189 113.743 27.326C113.616 27.6331 113.551 27.9624 113.552 28.2948V28.2948Z" fill="black"/>
<path d="M41.6603 10.2785C42.0894 10.2478 42.52 10.3124 42.9211 10.4678C43.3221 10.6231 43.6835 10.8652 43.9793 11.1767C44.2751 11.4882 44.4979 11.8613 44.6316 12.2691C44.7654 12.6768 44.8066 13.1091 44.7525 13.5347C44.7525 15.6283 43.6178 16.8317 41.6603 16.8317H39.2866V10.2785H41.6603ZM40.3073 15.905H41.5463C41.853 15.9232 42.1598 15.8731 42.4446 15.7582C42.7293 15.6433 42.9848 15.4665 43.1924 15.2408C43.4 15.015 43.5545 14.7459 43.6446 14.4531C43.7348 14.1603 43.7583 13.8511 43.7136 13.5481C43.7551 13.2462 43.7291 12.939 43.6376 12.6483C43.5461 12.3576 43.3912 12.0907 43.1841 11.8667C42.9769 11.6428 42.7227 11.4673 42.4395 11.3528C42.1564 11.2383 41.8514 11.1877 41.5463 11.2046H40.3073V15.905Z" fill="black"/>
<path d="M45.9054 14.3566C45.8742 14.0316 45.9115 13.7037 46.0148 13.3939C46.1182 13.0841 46.2853 12.7993 46.5055 12.5577C46.7257 12.3161 46.9941 12.123 47.2935 11.9909C47.5929 11.8588 47.9167 11.7906 48.2441 11.7906C48.5715 11.7906 48.8953 11.8588 49.1947 11.9909C49.4941 12.123 49.7625 12.3161 49.9827 12.5577C50.203 12.7993 50.3701 13.0841 50.4734 13.3939C50.5768 13.7037 50.6141 14.0316 50.5829 14.3566C50.6147 14.6819 50.5778 15.0103 50.4748 15.3206C50.3717 15.6309 50.2046 15.9162 49.9844 16.1583C49.7641 16.4004 49.4955 16.5938 49.1958 16.7262C48.8961 16.8586 48.5719 16.9269 48.2441 16.9269C47.9163 16.9269 47.5922 16.8586 47.2925 16.7262C46.9928 16.5938 46.7241 16.4004 46.5039 16.1583C46.2836 15.9162 46.1166 15.6309 46.0135 15.3206C45.9104 15.0103 45.8736 14.6819 45.9054 14.3566ZM49.5762 14.3566C49.5762 13.2846 49.0933 12.6577 48.2457 12.6577C47.395 12.6577 46.9164 13.2846 46.9164 14.3566C46.9164 15.4372 47.395 16.0592 48.2457 16.0592C49.0933 16.0592 49.5762 15.4329 49.5762 14.3566H49.5762Z" fill="black"/>
<path d="M56.8006 16.8318H55.7853L54.7603 13.1894H54.6829L53.6622 16.8318H52.6566L51.2896 11.8863H52.2823L53.1707 15.66H53.2438L54.2634 11.8863H55.2024L56.222 15.66H56.2994L57.1835 11.8863H58.1623L56.8006 16.8318Z" fill="black"/>
<path d="M59.312 11.886H60.2542V12.6717H60.3273C60.4514 12.3895 60.6607 12.153 60.926 11.995C61.1912 11.8371 61.4993 11.7656 61.8073 11.7906C62.0486 11.7725 62.2909 11.8088 62.5162 11.8967C62.7416 11.9847 62.9442 12.1221 63.109 12.2987C63.2739 12.4754 63.3968 12.6868 63.4686 12.9172C63.5404 13.1477 63.5593 13.3913 63.5239 13.63V16.8314H62.5451V13.8751C62.5451 13.0803 62.1988 12.6851 61.4749 12.6851C61.3111 12.6775 61.1476 12.7053 60.9955 12.7666C60.8435 12.8279 60.7065 12.9213 60.594 13.0403C60.4815 13.1594 60.3962 13.3012 60.3439 13.4562C60.2915 13.6112 60.2734 13.7757 60.2908 13.9383V16.8315H59.312L59.312 11.886Z" fill="black"/>
<path d="M65.0835 9.95557H66.0622V16.8316H65.0835V9.95557Z" fill="black"/>
<path d="M67.4227 14.3567C67.3915 14.0316 67.4288 13.7037 67.5322 13.3939C67.6356 13.0841 67.8027 12.7993 68.023 12.5577C68.2432 12.3161 68.5116 12.123 68.8111 11.9909C69.1105 11.8588 69.4343 11.7906 69.7617 11.7906C70.0891 11.7906 70.4129 11.8588 70.7124 11.9909C71.0118 12.123 71.2802 12.3161 71.5004 12.5577C71.7207 12.7993 71.8878 13.0841 71.9912 13.3939C72.0946 13.7037 72.1319 14.0316 72.1007 14.3567C72.1325 14.682 72.0956 15.0104 71.9925 15.3207C71.8894 15.631 71.7223 15.9163 71.502 16.1584C71.2817 16.4004 71.0131 16.5939 70.7134 16.7263C70.4137 16.8586 70.0895 16.927 69.7617 16.927C69.4339 16.927 69.1097 16.8586 68.81 16.7263C68.5103 16.5939 68.2417 16.4004 68.0214 16.1584C67.8011 15.9163 67.634 15.631 67.5309 15.3207C67.4278 15.0104 67.3909 14.682 67.4227 14.3567ZM71.0935 14.3567C71.0935 13.2847 70.6106 12.6578 69.763 12.6578C68.9123 12.6578 68.4337 13.2847 68.4337 14.3567C68.4337 15.4373 68.9123 16.0593 69.763 16.0593C70.6106 16.0593 71.0935 15.433 71.0935 14.3567H71.0935Z" fill="black"/>
<path d="M73.1311 15.4329C73.1311 14.5427 73.7958 14.0295 74.9757 13.9566L76.319 13.8793V13.4525C76.319 12.9301 75.9727 12.6352 75.3037 12.6352C74.7573 12.6352 74.3787 12.8352 74.2701 13.1849H73.3226C73.4226 12.3354 74.2239 11.7906 75.3489 11.7906C76.5922 11.7906 77.2935 12.4078 77.2935 13.4525V16.8315H76.3513V16.1365H76.2738C76.1167 16.3858 75.896 16.589 75.6342 16.7255C75.3725 16.8619 75.0792 16.9266 74.7842 16.913C74.576 16.9346 74.3656 16.9124 74.1665 16.848C73.9674 16.7835 73.7841 16.6781 73.6284 16.5387C73.4726 16.3992 73.3479 16.2288 73.2622 16.0383C73.1766 15.8479 73.1319 15.6416 73.1311 15.4329ZM76.319 15.0103V14.5969L75.108 14.6741C74.425 14.7197 74.1152 14.9513 74.1152 15.3873C74.1152 15.8324 74.5024 16.0914 75.0349 16.0914C75.1909 16.1072 75.3484 16.0915 75.4982 16.0452C75.648 15.999 75.787 15.9232 75.9068 15.8224C76.0266 15.7215 76.1248 15.5976 76.1956 15.4581C76.2665 15.3186 76.3084 15.1663 76.319 15.0103Z" fill="black"/>
<path d="M78.5802 14.3567C78.5802 12.794 79.3858 11.8041 80.6388 11.8041C80.9487 11.7899 81.2563 11.8639 81.5257 12.0175C81.795 12.1712 82.0148 12.3981 82.1596 12.6717H82.2328V9.95557H83.2115V16.8316H82.2736V16.0502H82.1962C82.0402 16.3221 81.8127 16.5461 81.5382 16.6982C81.2636 16.8503 80.9526 16.9246 80.6388 16.9131C79.3772 16.9131 78.5802 15.9232 78.5802 14.3567ZM79.5912 14.3567C79.5912 15.4057 80.0871 16.0369 80.9163 16.0369C81.7412 16.0369 82.2511 15.3966 82.2511 14.361C82.2511 13.3303 81.7359 12.6809 80.9163 12.6809C80.0924 12.6809 79.5912 13.3164 79.5912 14.3567H79.5912Z" fill="black"/>
<path d="M87.2606 14.3566C87.2294 14.0316 87.2667 13.7037 87.37 13.3939C87.4734 13.0841 87.6405 12.7993 87.8607 12.5577C88.0809 12.3161 88.3493 12.123 88.6488 11.9909C88.9482 11.8588 89.272 11.7906 89.5994 11.7906C89.9268 11.7906 90.2505 11.8588 90.5499 11.9909C90.8493 12.123 91.1178 12.3161 91.338 12.5577C91.5582 12.7993 91.7253 13.0841 91.8287 13.3939C91.932 13.7037 91.9693 14.0316 91.9381 14.3566C91.9699 14.6819 91.9331 15.0103 91.83 15.3206C91.7269 15.6309 91.5599 15.9162 91.3396 16.1583C91.1193 16.4004 90.8507 16.5938 90.551 16.7262C90.2513 16.8586 89.9271 16.9269 89.5994 16.9269C89.2716 16.9269 88.9474 16.8586 88.6477 16.7262C88.348 16.5938 88.0794 16.4004 87.8591 16.1583C87.6388 15.9162 87.4718 15.6309 87.3687 15.3206C87.2656 15.0103 87.2288 14.6819 87.2606 14.3566ZM90.9314 14.3566C90.9314 13.2846 90.4485 12.6577 89.601 12.6577C88.7502 12.6577 88.2716 13.2846 88.2716 14.3566C88.2716 15.4372 88.7502 16.0592 89.601 16.0592C90.4485 16.0592 90.9314 15.4329 90.9314 14.3566Z" fill="black"/>
<path d="M93.2515 11.886H94.1936V12.6717H94.2668C94.3909 12.3895 94.6001 12.153 94.8654 11.995C95.1307 11.8371 95.4388 11.7656 95.7467 11.7906C95.9881 11.7725 96.2303 11.8088 96.4557 11.8967C96.681 11.9847 96.8836 12.1221 97.0485 12.2987C97.2133 12.4754 97.3362 12.6868 97.408 12.9172C97.4798 13.1477 97.4987 13.3913 97.4633 13.63V16.8314H96.4846V13.8751C96.4846 13.0803 96.1382 12.6851 95.4144 12.6851C95.2506 12.6775 95.087 12.7053 94.935 12.7666C94.7829 12.8279 94.646 12.9213 94.5335 13.0403C94.421 13.1594 94.3357 13.3012 94.2833 13.4562C94.231 13.6112 94.2129 13.7757 94.2302 13.9383V16.8315H93.2515V11.886Z" fill="black"/>
<path d="M102.994 10.6548V11.9086H104.068V12.7307H102.994V15.2737C102.994 15.7918 103.208 16.0186 103.695 16.0186C103.82 16.0182 103.944 16.0107 104.068 15.9961V16.809C103.892 16.8404 103.714 16.8571 103.536 16.8589C102.447 16.8589 102.014 16.4771 102.014 15.5236V12.7307H101.227V11.9086H102.014V10.6548H102.994Z" fill="black"/>
<path d="M105.405 9.95557H106.375V12.6809H106.453C106.583 12.3961 106.798 12.1582 107.068 11.9997C107.339 11.8411 107.652 11.7697 107.965 11.795C108.205 11.7819 108.445 11.8219 108.668 11.912C108.89 12.0021 109.09 12.1401 109.254 12.3162C109.417 12.4923 109.539 12.7022 109.611 12.9307C109.684 13.1593 109.705 13.4011 109.673 13.6387V16.8316H108.693V13.8794C108.693 13.0895 108.324 12.6894 107.633 12.6894C107.464 12.6757 107.295 12.6988 107.137 12.757C106.978 12.8153 106.835 12.9074 106.716 13.0268C106.597 13.1462 106.506 13.2901 106.448 13.4484C106.391 13.6067 106.369 13.7756 106.384 13.9432V16.8316H105.405L105.405 9.95557Z" fill="black"/>
<path d="M115.38 15.4963C115.247 15.9483 114.959 16.3392 114.566 16.6008C114.173 16.8623 113.7 16.9778 113.231 16.927C112.904 16.9356 112.579 16.8732 112.279 16.7441C111.979 16.6151 111.711 16.4224 111.493 16.1795C111.275 15.9367 111.112 15.6494 111.017 15.3377C110.921 15.026 110.895 14.6973 110.94 14.3744C110.896 14.0505 110.923 13.7211 111.018 13.4085C111.114 13.0958 111.275 12.8072 111.492 12.5622C111.709 12.3173 111.976 12.1216 112.275 11.9885C112.574 11.8553 112.899 11.7879 113.226 11.7907C114.606 11.7907 115.439 12.7308 115.439 14.2838V14.6243H111.937V14.679C111.922 14.8605 111.944 15.0432 112.004 15.2153C112.064 15.3875 112.159 15.5453 112.283 15.6787C112.407 15.8121 112.558 15.9181 112.726 15.9899C112.894 16.0618 113.075 16.0978 113.258 16.0958C113.492 16.1238 113.729 16.0818 113.939 15.975C114.149 15.8683 114.323 15.7016 114.438 15.4962L115.38 15.4963ZM111.937 13.9025H114.442C114.454 13.7365 114.432 13.5698 114.375 13.413C114.319 13.2563 114.231 13.113 114.116 12.9923C114.001 12.8717 113.862 12.7764 113.708 12.7125C113.554 12.6486 113.388 12.6175 113.221 12.6214C113.052 12.6192 112.884 12.6509 112.727 12.7146C112.57 12.7782 112.428 12.8725 112.308 12.9919C112.188 13.1113 112.094 13.2534 112.03 13.4098C111.966 13.5662 111.935 13.7337 111.937 13.9025H111.937Z" fill="black"/>
</svg>
