<svg width="90" height="20" viewBox="-1 0 94 16" fill="none" xmlns="http://www.w3.org/2000/svg">
<path d="M0 8C0 3.58172 3.58172 0 8 0H80C84.4183 0 88 3.58172 88 8C88 12.4183 84.4183 16 80 16H8C3.58172 16 0 12.4183 0 8Z" fill="#00B3DE" fill-opacity="0.08"/>
<path d="M9.89 11.12C11.36 11.12 12.2 10.31 12.68 9.48L11.46 8.89C11.18 9.44 10.58 9.86 9.89 9.86C8.68 9.86 7.8 8.93 7.8 7.67C7.8 6.41 8.68 5.48 9.89 5.48C10.58 5.48 11.18 5.91 11.46 6.45L12.68 5.85C12.21 5.02 11.36 4.22 9.89 4.22C7.89 4.22 6.34 5.62 6.34 7.67C6.34 9.72 7.89 11.12 9.89 11.12ZM17.0852 11.12C19.1052 11.12 20.5752 9.68 20.5752 7.67C20.5752 5.66 19.1052 4.22 17.0852 4.22C15.0752 4.22 13.6052 5.66 13.6052 7.67C13.6052 9.68 15.0752 11.12 17.0852 11.12ZM17.0852 9.86C15.8552 9.86 15.0652 8.91 15.0652 7.67C15.0652 6.42 15.8552 5.48 17.0852 5.48C18.3152 5.48 19.1152 6.42 19.1152 7.67C19.1152 8.91 18.3152 9.86 17.0852 9.86ZM29.2017 11V4.33H27.2017L25.5817 8.36L23.9617 4.33H21.9717V11H23.3917V6.33L25.2717 11H25.8917L27.7717 6.33V11H29.2017ZM32.3464 11V4.33H30.9264V11H32.3464ZM40.0405 11V4.33H38.6205V8.52L35.5305 4.33H34.0705V11H35.4905V6.65L38.6705 11H40.0405ZM44.9857 11.13C46.1957 11.13 47.1457 10.63 47.8257 9.87V7.31H44.6457V8.55H46.4057V9.35C46.1357 9.6 45.5757 9.86 44.9857 9.86C43.7757 9.86 42.8957 8.93 42.8957 7.67C42.8957 6.41 43.7757 5.48 44.9857 5.48C45.6957 5.48 46.2657 5.88 46.5657 6.35L47.7457 5.71C47.2457 4.92 46.3757 4.22 44.9857 4.22C43.0357 4.22 41.4357 5.56 41.4357 7.67C41.4357 9.77 43.0357 11.13 44.9857 11.13ZM54.6816 11.12C56.4816 11.12 57.3516 10.2 57.3516 8.98C57.3516 6.49 53.5216 7.2 53.5216 6.14C53.5216 5.74 53.8616 5.47 54.4716 5.47C55.1516 5.47 55.8716 5.7 56.4116 6.2L57.2016 5.16C56.5416 4.55 55.6616 4.23 54.6016 4.23C53.0316 4.23 52.0716 5.15 52.0716 6.26C52.0716 8.77 55.9116 7.96 55.9116 9.14C55.9116 9.52 55.5316 9.88 54.7516 9.88C53.8316 9.88 53.1016 9.47 52.6316 8.98L51.8616 10.06C52.4816 10.69 53.4016 11.12 54.6816 11.12ZM61.8677 11.12C63.8877 11.12 65.3577 9.68 65.3577 7.67C65.3577 5.66 63.8877 4.22 61.8677 4.22C59.8577 4.22 58.3877 5.66 58.3877 7.67C58.3877 9.68 59.8577 11.12 61.8677 11.12ZM61.8677 9.86C60.6377 9.86 59.8477 8.91 59.8477 7.67C59.8477 6.42 60.6377 5.48 61.8677 5.48C63.0977 5.48 63.8977 6.42 63.8977 7.67C63.8977 8.91 63.0977 9.86 61.8677 9.86ZM69.9141 11.12C71.9341 11.12 73.4041 9.68 73.4041 7.67C73.4041 5.66 71.9341 4.22 69.9141 4.22C67.9041 4.22 66.4341 5.66 66.4341 7.67C66.4341 9.68 67.9041 11.12 69.9141 11.12ZM69.9141 9.86C68.6841 9.86 67.8941 8.91 67.8941 7.67C67.8941 6.42 68.6841 5.48 69.9141 5.48C71.1441 5.48 71.9441 6.42 71.9441 7.67C71.9441 8.91 71.1441 9.86 69.9141 9.86ZM80.7706 11V4.33H79.3506V8.52L76.2606 4.33H74.8006V11H76.2206V6.65L79.4006 11H80.7706Z" fill="#00B3DE"/>
<path d="M8 1H80V-1H8V1ZM80 15H8V17H80V15ZM8 15C4.13401 15 1 11.866 1 8H-1C-1 12.9706 3.02943 17 8 17V15ZM87 8C87 11.866 83.866 15 80 15V17C84.9706 17 89 12.9706 89 8H87ZM80 1C83.866 1 87 4.13401 87 8H89C89 3.02944 84.9706 -1 80 -1V1ZM8 -1C3.02944 -1 -1 3.02944 -1 8H1C1 4.13401 4.13401 1 8 1V-1Z" fill="#00B3DE"/>
</svg>
