<svg width="134" height="24" viewBox="0 0 134 24" fill="none" xmlns="http://www.w3.org/2000/svg">
<path fill-rule="evenodd" clip-rule="evenodd" d="M124.741 12.8379C124.741 14.0071 125.127 14.9877 125.919 15.7795C126.711 16.5523 127.714 16.9483 128.89 16.9483C130.065 16.9483 131.049 16.5523 131.841 15.7795C132.632 14.9877 133.036 14.0071 133.036 12.8379C133.036 11.669 132.632 10.6885 131.841 9.91562C131.049 9.12317 130.065 8.72716 128.89 8.72716C127.714 8.72716 126.711 9.12317 125.919 9.91562C125.127 10.6885 124.741 11.669 124.741 12.8379ZM123.777 12.8379C123.777 11.424 124.26 10.2361 125.244 9.27436C126.228 8.31301 127.442 7.84087 128.89 7.84087C130.337 7.84087 131.532 8.31301 132.516 9.27436C133.5 10.2361 134 11.424 134 12.8379C134 14.2524 133.5 15.4398 132.516 16.4016C131.532 17.3633 130.337 17.8344 128.89 17.8344C127.442 17.8344 126.228 17.3633 125.244 16.4016C124.26 15.4398 123.777 14.2524 123.777 12.8379ZM120.075 17.5894V8.9724H118.859V8.08611H120.075V4.44755H121.039V8.08611H123.315V8.9724H121.039V17.5894H120.075ZM109.216 8.08611H110.18V13.8937C110.18 15.8548 111.317 16.9108 113.228 16.9108C115.137 16.9108 116.274 15.8548 116.274 13.8937V8.08611H117.238V13.9882C117.238 16.4205 115.677 17.7971 113.228 17.7971C110.778 17.7971 109.216 16.4205 109.216 13.9882V8.08611ZM99.146 13.1021H105.087L102.116 5.9559L99.146 13.1021ZM96.1949 17.5894L101.73 4.44755H102.522L108.057 17.5894H106.979L105.473 14.0071H98.7598L97.2757 17.5894H96.1949ZM92.7434 11.8196C92.7434 11.254 92.491 10.7639 92.0099 10.3679C91.5267 9.95294 90.968 9.74566 90.2928 9.74566C89.5788 9.74566 88.9424 9.95294 88.4225 10.349C87.9004 10.7448 87.6114 11.235 87.5531 11.8196H92.7434ZM85.1996 12.8379C85.1996 11.3295 85.6828 10.1229 86.6277 9.19908C87.592 8.27484 88.8065 7.82252 90.2928 7.82252C91.7014 7.82252 92.8577 8.27484 93.7465 9.19908C94.6525 10.1229 95.0969 11.254 95.0969 12.6116C95.0969 12.8948 95.0775 13.1582 95.0581 13.4034H87.4949C87.5725 14.9122 88.7116 15.8923 90.4287 15.8923C91.4296 15.8923 92.299 15.5345 93.0519 14.7987L94.4411 16.119C93.3409 17.2497 91.9905 17.8154 90.351 17.8154C88.8259 17.8154 87.5726 17.3633 86.6277 16.4768C85.6828 15.5908 85.1996 14.4029 85.1996 12.9131V12.8379ZM80.3588 17.5894V10.1417H79.1055V8.08611H80.3588V4.44755H82.6735V8.08611H84.7768V10.1417H82.6735V17.5894H80.3588ZM74.7846 14.9122C75.3628 14.365 75.654 13.6676 75.654 12.8379C75.654 12.0085 75.3628 11.3103 74.7846 10.7639C74.2259 10.2172 73.5119 9.93396 72.6835 9.93396C71.853 9.93396 71.1778 10.2172 70.619 10.7639C70.0776 11.3103 69.8079 12.0085 69.8079 12.8379C69.8079 13.6676 70.0776 14.365 70.619 14.9122C71.1778 15.459 71.853 15.7415 72.6835 15.7415C73.5119 15.7415 74.2259 15.459 74.7846 14.9122ZM75.4792 9.46267V8.08611H77.7939V17.5894H75.4792V16.2126C75.1513 17.1369 73.9757 17.7971 72.3729 17.7971C71.0052 17.7971 69.8468 17.3258 68.9019 16.3826C67.9765 15.421 67.5127 14.2524 67.5127 12.8379C67.5127 11.424 67.9765 10.2545 68.9019 9.3119C69.8468 8.35033 71.0052 7.87904 72.3729 7.87904C73.9757 7.87904 75.1513 8.53906 75.4792 9.46267ZM61.3021 17.5894L57.1365 8.08611H59.5288L62.2858 14.5347L65.0254 8.08611H67.4156L63.25 17.5894H61.3021ZM53.7605 17.5894H56.0751V8.08611H53.7605V17.5894ZM53.5296 5.63517C53.5296 4.88089 54.1466 4.29614 54.9167 4.29614C55.6696 4.29614 56.2866 4.88089 56.2866 5.63517C56.2866 6.38924 55.6696 6.97377 54.9167 6.97377C54.1466 6.97377 53.5296 6.38924 53.5296 5.63517ZM46.3332 17.5894V8.08611H48.6285V9.50063C49.0923 8.5011 50.1536 7.89801 51.5234 7.89801C51.7931 7.89801 52.0239 7.91657 52.2181 7.95432V10.1417C51.9268 10.0854 51.6011 10.0472 51.2538 10.0472C49.6531 10.0472 48.6285 11.028 48.6285 12.5924V17.5894H46.3332ZM37.6353 10.8582H40.2391C41.3198 10.8582 42.3424 10.0854 42.3424 8.72716C42.3424 7.35123 41.3198 6.57797 40.2391 6.57797H37.6353V10.8582ZM35.2236 17.5894V4.44755H40.3556C41.4924 4.44755 42.5149 4.84335 43.4037 5.63517C44.2903 6.42698 44.7347 7.46404 44.7347 8.72716C44.7347 9.95294 44.2903 10.9714 43.4037 11.7818C42.5344 12.5924 41.5118 12.9884 40.3556 12.9884H37.6353V17.5894H35.2236Z" fill="#2C2641"/>
<mask id="mask0" mask-type="alpha" maskUnits="userSpaceOnUse" x="6" y="18" width="23" height="6">
<path d="M9.77932 18.4893L6.52625 23.9999H25.0955L28.3507 18.4893H9.77932Z" fill="white"/>
</mask>
<g mask="url(#mask0)">
<path fill-rule="evenodd" clip-rule="evenodd" d="M9.77932 18.4893L6.52625 23.9999H25.0955L28.3507 18.4893H9.77932Z" fill="url(#paint0_linear)"/>
</g>
<mask id="mask1" mask-type="alpha" maskUnits="userSpaceOnUse" x="14" y="0" width="15" height="19">
<path d="M21.8402 18.4889H28.3507L17.4287 0L14.1757 5.51046L21.8402 18.4889Z" fill="white"/>
</mask>
<g mask="url(#mask1)">
<path fill-rule="evenodd" clip-rule="evenodd" d="M21.8402 18.4889H28.3507L17.4287 0L14.1757 5.51046L21.8402 18.4889Z" fill="url(#paint1_linear)"/>
</g>
<mask id="mask2" mask-type="alpha" maskUnits="userSpaceOnUse" x="0" y="0" width="18" height="24">
<path d="M14.1757 11.0481L11.4166 15.7204H16.9347L14.1757 11.0481ZM17.4287 0L3.25372 23.9995L0 18.4889L10.9204 0H17.4287Z" fill="white"/>
</mask>
<g mask="url(#mask2)">
<path fill-rule="evenodd" clip-rule="evenodd" d="M14.1757 11.0481L11.4166 15.7204H16.9347L14.1757 11.0481ZM17.4287 0L3.25372 23.9995L0 18.4889L10.9204 0H17.4287Z" fill="url(#paint2_linear)"/>
</g>
<defs>
<linearGradient id="paint0_linear" x1="28.3507" y1="21.2447" x2="6.52625" y2="21.2447" gradientUnits="userSpaceOnUse">
<stop stop-color="#24A5CA"/>
<stop offset="1" stop-color="#5ABFCA"/>
</linearGradient>
<linearGradient id="paint1_linear" x1="14.1757" y1="9.24454" x2="28.3506" y2="9.24454" gradientUnits="userSpaceOnUse">
<stop stop-color="#24A5CA"/>
<stop offset="1" stop-color="#5ABFCA"/>
</linearGradient>
<linearGradient id="paint2_linear" x1="8.71577" y1="23.9996" x2="8.71577" y2="-0.000190256" gradientUnits="userSpaceOnUse">
<stop stop-color="#24A5CA"/>
<stop offset="1" stop-color="#5ABFCA"/>
</linearGradient>
</defs>
</svg>
