<svg width="212" height="200" viewBox="0 0 212 200" fill="none" xmlns="http://www.w3.org/2000/svg">
<rect x="1" y="1" width="210" height="198" rx="11" stroke="#E9E9E9" stroke-width="2"/>
<rect x="8" y="8" width="196" height="116" rx="8" fill="#E9E9E9"/>
<rect x="8" y="132" width="196" height="16" rx="2" fill="#E9E9E9"/>
<rect x="8" y="160" width="92" height="16" rx="2" fill="#E9E9E9"/>
<path d="M192.84 20.61C192.329 20.099 191.723 19.6936 191.055 19.4171C190.388 19.1405 189.672 18.9982 188.95 18.9982C188.228 18.9982 187.512 19.1405 186.845 19.4171C186.177 19.6936 185.571 20.099 185.06 20.61L184 21.67L182.94 20.61C181.908 19.5783 180.509 18.9987 179.05 18.9987C177.591 18.9987 176.192 19.5783 175.16 20.61C174.128 21.6417 173.549 23.041 173.549 24.5C173.549 25.959 174.128 27.3583 175.16 28.39L176.22 29.45L184 37.23L191.78 29.45L192.84 28.39C193.351 27.8792 193.756 27.2728 194.033 26.6053C194.309 25.9379 194.452 25.2225 194.452 24.5C194.452 23.7775 194.309 23.0621 194.033 22.3946C193.756 21.7272 193.351 21.1208 192.84 20.61Z" fill="#D3D3D3" stroke="white" stroke-width="2" stroke-linecap="round" stroke-linejoin="round"/>
<circle cx="192" cy="172" r="12" fill="#E9E9E9"/>
</svg>
