<svg width="62" height="19" viewBox="0 0 62 19" fill="none" xmlns="http://www.w3.org/2000/svg">
<path fill-rule="evenodd" clip-rule="evenodd" d="M56.5267 15.7853C57.4479 15.7074 58.4886 15.6395 59.3104 15.5151C59.96 15.4166 60.4702 15.2603 60.6816 15.0646C61.3527 14.4433 61.2758 12.5077 61.2644 11.5147C61.2613 11.273 60.6469 11.2722 60.6324 11.0204C60.5432 9.49062 60.501 8.95954 60.334 7.38729C60.2645 6.73755 59.7222 6.2047 58.8661 5.9385C56.3905 5.16967 50.4632 4.45296 47.6584 4.33693L46.7689 4.30365L45.8965 4.11276C45.316 4.20295 45.3678 4.09655 45.2399 4.70689C45.1283 5.23885 44.851 5.89778 44.1531 5.93018C41.721 6.04226 39.2898 6.06853 36.9605 6.14909C36.7148 6.15741 36.4081 6.01205 36.4125 5.73228L36.4314 4.67755C36.4336 4.5519 36.3505 4.46082 36.2257 4.44987L35.4162 4.37721C35.2918 4.36626 35.1978 4.4814 35.1758 4.60487L35.0079 5.52519C34.8941 6.14953 34.7877 6.32773 34.1588 6.35443L24.0881 6.78044C23.9668 6.7857 24.2748 6.21959 24.303 5.75287C24.3504 4.9639 22.1139 4.82248 21.216 4.88071C22.473 3.87764 25.3257 2.32552 27.8276 1.11142C28.1181 0.970003 28.2913 0.963886 28.1014 0.665724L27.9129 0.37019C27.7736 0.152149 27.5965 0.170542 27.371 0.276058C23.7207 1.98228 21.1963 3.18236 17.6874 5.23491C13.5005 5.67756 8.85163 6.52476 4.60975 7.57249C3.23812 7.91137 2.5745 7.75681 2.15304 8.56898C1.69334 9.45559 1.47579 10.2866 1.26528 10.7897C0.929517 10.8168 0.916773 10.9179 0.810418 11.1137C0.711535 11.2958 0.725158 12.0222 0.732189 12.3019C0.742297 12.7214 0.772622 13.3505 0.809099 13.7581C0.885129 14.611 1.02884 15.0887 1.46349 15.4118C1.71224 15.5966 2.11085 15.7109 2.46111 15.7222L3.79055 15.7656C4.66029 15.6434 4.8163 15.7341 4.72533 14.5983C4.70467 14.34 4.69544 14.0751 4.69544 13.8015C4.69544 10.5357 7.35344 7.88816 10.6315 7.88816C13.9096 7.88816 16.5672 10.5357 16.5672 13.8015C16.5672 14.2625 16.5426 14.7113 16.478 15.1417C16.2433 16.7126 16.4797 16.4482 17.7077 16.4482H42.7507C43.5717 16.2805 43.8635 16.2831 43.729 15.143C43.678 14.7122 43.6639 14.263 43.6639 13.8015C43.6639 10.5357 46.3215 7.88816 49.5996 7.88816C52.8781 7.88816 55.5357 10.5357 55.5357 13.8015C55.5357 14.0235 55.5401 14.2428 55.5418 14.4587C55.5506 15.5835 55.6047 15.8632 56.5267 15.7853ZM49.5996 9.25288C52.1213 9.25288 54.1654 11.2892 54.1654 13.8015C54.1654 16.3138 52.1213 18.3501 49.5996 18.3501C47.0783 18.3501 45.0338 16.3138 45.0338 13.8015C45.0338 11.2892 47.0783 9.25288 49.5996 9.25288ZM10.6315 9.25288C13.1529 9.25288 15.1973 11.2892 15.1973 13.8015C15.1973 16.3138 13.1529 18.3501 10.6315 18.3501C8.10979 18.3501 6.06575 16.3138 6.06575 13.8015C6.06575 11.2892 8.10979 9.25288 10.6315 9.25288Z" fill="#2E3B54"/>
</svg>

