<svg width="62" height="21" viewBox="0 0 62 21" fill="none" xmlns="http://www.w3.org/2000/svg">
<path fill-rule="evenodd" clip-rule="evenodd" d="M56.8069 17.7539C57.6542 17.6836 58.571 17.6141 59.3106 17.5043C59.9606 17.4085 60.4704 17.2485 60.6818 17.0525C61.3529 16.4289 61.276 14.4857 61.2641 13.4899C61.2615 13.2469 60.6471 13.2465 60.6322 12.9938C60.5429 11.4575 60.4353 10.1335 60.2678 8.55631C60.1984 7.9033 59.6561 7.36893 58.8004 7.10175C56.2044 6.2923 52.38 5.7742 51.1494 5.41517C50.2432 5.14975 49.8332 4.83291 49.3814 4.55386C47.6274 3.46843 45.4529 2.27534 44.2298 1.73219C43.092 1.22639 42.1967 0.578203 40.6537 0.578203C36.5626 0.578203 31.8614 0.297844 28.0524 1.50807C24.4052 2.66732 21.0814 4.76215 17.6213 6.39512C13.4344 6.83984 8.78552 7.68972 4.54407 8.74175C3.17157 9.08188 2.57431 9.71732 2.15284 10.5329C1.69314 11.4224 1.47561 12.2564 1.2651 12.7613C0.929337 12.7895 0.916587 12.8905 0.810233 13.0874C0.711349 13.2698 0.7254 13.9988 0.731993 14.2792C0.742101 14.7002 0.772425 15.3321 0.808902 15.7412C0.884933 16.5968 1.02865 17.0762 1.4633 17.4005C1.71204 17.586 2.11066 17.7288 2.46093 17.7402L3.62335 17.778C4.9185 17.6097 4.80248 17.8426 4.71459 16.407C4.7014 16.1969 4.6957 15.9882 4.6957 15.7847C4.6957 12.5069 7.35324 9.84958 10.6313 9.84958C13.9094 9.84958 16.567 12.5069 16.567 15.7847C16.567 16.3397 16.5318 16.8776 16.4343 17.3869C16.1895 18.6723 16.0576 18.4078 17.3757 18.4996L42.7228 18.4715C43.9955 18.3155 43.8751 18.526 43.7187 17.0385C43.676 16.6346 43.6642 16.2149 43.6642 15.7847C43.6642 12.5069 46.3217 9.84958 49.5998 9.84958C52.8779 9.84958 55.5355 12.5069 55.5355 15.7847C55.5355 16.0906 55.5443 16.3911 55.5421 16.6847C55.5333 17.9512 55.7319 17.8431 56.8069 17.7539ZM37.6151 6.71724C37.9333 4.10782 38.0779 3.13534 38.2036 2.40674C38.259 2.08859 38.3183 1.91939 38.7112 1.91016L39.6126 1.88952C40.2661 1.87458 43.4123 3.95973 44.6693 5.26532C45.3957 6.0194 45.6915 7.08154 44.0869 7.1558L38.4515 7.41771C37.5444 7.45946 37.5154 7.53592 37.6151 6.71724ZM24.0224 7.9468C23.9006 7.95208 24.2087 7.38386 24.2368 6.91542C24.2843 6.1231 22.8362 6.06467 21.9384 6.12268C23.68 4.82808 26.2637 3.44997 28.5767 2.64887C29.3906 2.37597 31.5995 2.04288 33.1285 1.99322L36.3406 1.88952C36.6962 1.88512 36.683 2.03408 36.639 2.32939C36.4791 3.39724 36.178 5.32861 35.9376 6.661C35.8194 7.31577 35.6797 7.45154 35.0081 7.48011L24.0224 7.9468ZM49.5998 11.2193C52.1211 11.2193 54.1656 13.2632 54.1656 15.7847C54.1656 18.3058 52.1211 20.3501 49.5998 20.3501C47.0781 20.3501 45.034 18.3058 45.034 15.7847C45.034 13.2632 47.0781 11.2193 49.5998 11.2193ZM10.6313 11.2193C13.1531 11.2193 15.1971 13.2632 15.1971 15.7847C15.1971 18.3058 13.1531 20.3501 10.6313 20.3501C8.10959 20.3501 6.06557 18.3058 6.06557 15.7847C6.06557 13.2632 8.10959 11.2193 10.6313 11.2193Z" fill="#2E3B54"/>
</svg>
