<svg width="56" height="21" viewBox="0 0 56 21" fill="none" xmlns="http://www.w3.org/2000/svg">
<path fill-rule="evenodd" clip-rule="evenodd" d="M53.984 17.7317C54.6202 17.6201 55.1245 17.4734 55.3324 17.2758C55.992 16.6479 55.7923 14.688 55.7819 13.6834C55.7793 13.4393 55.1747 13.4375 55.1604 13.1832C55.0731 11.6349 54.4218 8.78968 54.2571 7.1989C54.1975 6.6233 53.9688 5.85937 52.973 5.22793C51.8091 4.49059 48.4768 2.47973 47.2126 1.93603C46.3776 1.57711 46.5812 1.49027 45.6848 1.35866C41.2327 0.703298 31.4982 -0.0703879 27.1359 1.35068C23.5491 2.51917 20.4255 4.21364 17.1862 6.27855C11.456 7.29151 6.77959 8.15203 3.99663 8.91907C2.65421 9.28907 2.0798 9.9449 1.66532 10.7673C1.21367 11.6637 0.999298 12.1888 0.792704 12.698C0.296535 12.7401 0.176813 13.2089 0.185457 13.8425C0.199719 14.8373 0.109388 15.5472 0.379515 16.5322C0.578761 17.2585 1.2128 17.6794 1.9683 17.7043L3.36345 17.7512C4.04071 17.6196 4.24861 17.6573 4.19069 16.7285C4.17081 16.4099 4.16605 16.0829 4.16605 15.7466C4.16605 12.4414 6.77959 9.76187 10.0034 9.76187C13.2272 9.76187 15.8407 12.4414 15.8407 15.7466C15.8407 16.2087 15.8399 16.659 15.8105 17.091C15.7098 18.5644 15.2624 18.411 16.6429 18.4841L40.1007 18.4576C41.1039 18.3322 41.3727 18.4558 41.2335 17.0595C41.1916 16.6373 41.183 16.1977 41.183 15.7466C41.183 12.4414 43.7965 9.76187 47.0203 9.76187C50.2441 9.76187 52.8576 12.4414 52.8576 15.7466C52.8576 16.0439 52.8572 16.3346 52.8477 16.616C52.8105 17.7517 52.5663 17.9808 53.984 17.7317ZM35.2903 6.78149C35.6499 3.76255 35.694 2.88873 35.9706 2.15493C36.0151 2.03573 36.2749 1.78847 36.4702 1.79778C38.5897 1.90146 40.9483 1.86469 43.0004 2.35256C43.7295 2.56171 45.2219 4.30272 45.5953 4.82692C45.7397 5.02898 46.8115 6.3056 46.6395 6.56881C46.5189 6.7527 46.3672 6.86834 46.0798 6.87853C42.8889 6.98754 39.3254 7.33272 36.1379 7.3726C35.2445 7.38324 35.1918 7.60702 35.2903 6.78149V6.78149ZM23.1726 7.84319C23.202 7.72444 23.3559 7.27555 23.3835 6.80319C23.4302 6.0047 21.7209 5.94534 20.8379 6.00384C22.5498 4.69842 25.3769 3.3088 27.652 2.501C29.5273 1.85716 32.0522 1.84164 34.0624 1.79778C34.4121 1.79379 34.3995 1.94445 34.3554 2.24178C34.215 3.18871 33.8727 5.23503 33.6656 6.60957C33.5658 7.27247 33.4128 7.42977 32.7515 7.43509C30.141 7.45769 23.1406 7.9717 23.1726 7.84319ZM47.0203 11.1431C49.4999 11.1431 51.5105 13.204 51.5105 15.7466C51.5105 18.2887 49.4999 20.3501 47.0203 20.3501C44.5403 20.3501 42.5301 18.2887 42.5301 15.7466C42.5301 13.204 44.5403 11.1431 47.0203 11.1431ZM10.0034 11.1431C12.4834 11.1431 14.4935 13.204 14.4935 15.7466C14.4935 18.2887 12.4834 20.3501 10.0034 20.3501C7.52341 20.3501 5.51323 18.2887 5.51323 15.7466C5.51323 13.204 7.52341 11.1431 10.0034 11.1431Z" fill="#2E3B54"/>
</svg>

