<svg width="62" height="25" viewBox="0 0 62 25" fill="none" xmlns="http://www.w3.org/2000/svg">
<path fill-rule="evenodd" clip-rule="evenodd" d="M49.534 15.0977C52.0344 15.0977 54.0611 17.1686 54.0611 19.7237C54.0611 22.2787 52.0344 24.3501 49.534 24.3501C47.0336 24.3501 45.0069 22.2787 45.0069 19.7237C45.0069 17.1686 47.0336 15.0977 49.534 15.0977ZM56.0072 21.7345C57.0347 21.6446 58.3398 21.5404 59.3273 21.3467C59.9691 21.2211 60.4772 21.0573 60.6868 20.8346C61.3522 20.1284 61.276 17.9265 61.2642 16.7977C61.2616 16.5225 60.6524 16.5221 60.6376 16.2353C60.5491 14.4952 60.4105 12.7007 59.9883 10.9686C59.6628 9.63452 59.0161 8.72616 58.5207 7.68688C58.0797 6.76203 57.0186 3.77421 55.5035 2.06345C55.2751 1.80564 55.2621 1.45876 55.2708 1.17289C55.2943 0.419037 55.1797 0.522787 54.4934 0.460894C53.716 0.39143 52.3987 0.44264 50.6334 0.452883L29.8443 0.574888C28.8684 0.580677 27.946 0.670626 27.0992 0.733856C22.4444 1.08295 16.8635 5.09536 12.8891 7.53593C10.6708 8.33165 7.26133 9.64744 4.28371 10.7633C3.08773 11.2117 2.70592 11.795 2.34694 12.5845C2.11442 13.0957 1.94047 13.744 1.73758 14.5949C1.60563 15.1484 1.41281 15.6449 1.28003 15.9726C0.946894 16.0038 0.934301 15.9072 0.828761 16.1298C0.718122 16.3636 0.779911 16.6744 0.755596 17.0573C0.700778 17.9247 0.713198 19.0678 0.904844 19.8461C1.08852 20.5928 1.25702 20.9544 1.57944 21.2296C1.82591 21.4398 2.11817 21.6009 2.4656 21.6139L3.89184 21.6668C4.85138 21.5667 4.89887 21.7403 4.73782 20.5612C4.70073 20.2878 4.68117 20.0082 4.68117 19.7237C4.68117 16.4023 7.31611 13.7097 10.5666 13.7097C13.8171 13.7097 16.4521 16.4023 16.4521 19.7237C16.4521 20.3136 16.3688 20.884 16.2141 21.4228C15.8853 22.5654 16.0488 22.3824 16.9656 22.4746L42.8386 22.4425C43.7816 22.3495 44.1982 22.5957 43.8496 21.287C43.7166 20.7892 43.6487 20.2647 43.6487 19.7237C43.6487 16.4023 46.2837 13.7097 49.534 13.7097C52.7843 13.7097 55.4194 16.4023 55.4194 19.7237C55.4194 20.0901 55.3876 20.449 55.3261 20.7968C55.2115 21.4455 55.3815 21.7893 56.0072 21.7345ZM31.9869 8.14284C32.3495 4.75071 32.4357 3.22831 32.7142 2.40365C32.7591 2.26962 32.9996 2.14494 33.197 2.1436L41.2324 2.0875C41.7457 2.08394 42.0555 2.09952 42.076 2.80217L42.2159 7.60272C42.2333 8.2043 42.3078 8.50886 41.6355 8.53424C38.4183 8.65625 36.0556 8.76268 32.8419 8.80721C31.9412 8.81923 31.888 9.0708 31.9869 8.14284ZM18.9054 9.29434C18.935 9.1612 19.0904 8.65625 19.1182 8.12548C19.1653 7.2278 17.7296 7.16101 16.8395 7.22736C19.6101 4.87317 24.365 2.18323 27.9139 2.177L30.7284 2.17211C31.081 2.16677 31.0962 2.34309 31.0239 2.67082C30.7799 3.78179 30.5581 6.40582 30.3493 7.95004C30.2487 8.69499 30.0944 8.87176 29.4277 8.878C26.7954 8.90293 18.8734 9.43861 18.9054 9.29434ZM43.6814 7.81334C43.6099 6.24685 43.538 4.68036 43.467 3.11387C43.4556 2.86807 43.5188 2.66325 43.562 2.47356C43.5925 2.34042 43.8204 2.21663 44.0169 2.21396C45.8074 2.18814 45.1024 2.19258 46.8929 2.16721C47.3761 2.16008 50.4744 2.78971 51.4675 3.68249C52.7983 4.87851 54.174 6.41561 54.489 7.04211C54.7566 7.57333 54.6381 7.94782 53.9687 7.97364C50.7646 8.09565 47.8167 8.43361 44.6082 8.47814C43.7084 8.48972 43.7232 8.74041 43.6814 7.81334ZM10.5666 15.0977C13.0668 15.0977 15.0937 17.1686 15.0937 19.7237C15.0937 22.2787 13.0668 24.3501 10.5666 24.3501C8.06644 24.3501 6.03947 22.2787 6.03947 19.7237C6.03947 17.1686 8.06644 15.0977 10.5666 15.0977Z" fill="#2E3B54"/>
</svg>

