<svg width="62" height="21" viewBox="0 0 62 21" fill="none" xmlns="http://www.w3.org/2000/svg">
<path fill-rule="evenodd" clip-rule="evenodd" d="M49.5344 11.1552C52.0344 11.1552 54.0611 13.2134 54.0611 15.7526C54.0611 18.2914 52.0344 20.3501 49.5344 20.3501C47.0341 20.3501 45.0074 18.2914 45.0074 15.7526C45.0074 13.2134 47.0341 11.1552 49.5344 11.1552ZM45.3254 3.0037L45.0235 7.01171C45.9102 6.96436 46.7665 6.92277 47.5618 6.89621C47.8524 6.88604 48.0049 6.77053 48.1261 6.58644C48.2999 6.32358 48.574 5.72085 48.6725 5.42834C48.7462 5.20884 48.7309 5.10662 48.544 4.8473C48.2943 4.50035 46.6327 3.6197 45.3254 3.0037ZM44.3507 7.04844L44.7219 2.72711C44.3245 2.5501 44.0042 2.42131 43.8356 2.37352C42.8146 2.06817 41.7461 1.87657 40.7121 1.86418L37.2513 1.82213C37.0539 1.81991 36.8133 1.9341 36.768 2.05314C36.4891 2.78642 36.4242 3.78387 36.0617 6.79885C35.9623 7.62373 36.0155 7.40026 36.9166 7.3892C39.1364 7.36176 41.8342 7.18917 44.3507 7.04844ZM56.5458 17.7874C57.4644 17.7157 58.5058 17.6276 59.3273 17.4843C59.9696 17.3727 60.4772 17.2267 60.6868 17.0289C61.3522 16.4014 61.276 14.4445 61.2642 13.4413C61.2616 13.197 60.6524 13.1966 60.638 12.9421C60.5491 11.395 60.4428 9.68284 60.2768 8.09414C60.0768 6.18594 56.2251 6.1156 53.8646 5.35709C52.186 4.81765 50.8034 3.66086 48.6472 2.69215C46.2728 1.62565 44.2003 0.648096 41.7039 0.648096C37.6469 0.648096 31.6169 0.156439 27.8402 1.37562C24.2238 2.54302 20.9282 4.65213 17.4979 6.29702C13.346 6.74442 8.73652 7.60072 4.53101 8.66014C3.17058 9.00222 2.57795 9.64258 2.16005 10.4639C1.70469 11.3596 1.48855 12.1995 1.28026 12.708C0.9469 12.7359 0.934264 12.65 0.829246 12.8478C0.718127 13.0554 0.780002 13.332 0.7556 13.6723C0.700694 14.4432 0.713333 15.4588 0.905067 16.1505C1.08852 16.8143 1.25716 17.1355 1.57962 17.3798C1.82582 17.5666 2.11865 17.7104 2.46552 17.7215L4.00636 17.7728C4.92582 17.6007 4.75238 17.4807 4.69399 16.2929C4.68527 16.1151 4.68135 15.9345 4.68135 15.7526C4.68135 12.4518 7.31639 9.77577 10.5667 9.77577C13.817 9.77577 16.4521 12.4518 16.4521 15.7526C16.4521 16.0885 16.4455 16.4182 16.4233 16.7386C16.2852 18.7406 16.1017 18.395 17.8896 18.4857L42.5828 18.4583C43.897 18.2742 43.8221 18.4423 43.6848 16.7651C43.6582 16.4359 43.6486 16.0978 43.6486 15.7526C43.6486 12.4518 46.2841 9.77577 49.5344 9.77577C52.7848 9.77577 55.4198 12.4518 55.4198 15.7526C55.4198 16.0358 55.412 16.3177 55.3906 16.5957C55.2852 17.968 55.6634 17.856 56.5458 17.7874ZM23.8443 7.85961C23.8739 7.74101 24.029 7.29228 24.0569 6.82054C24.104 6.0231 22.6686 5.96381 21.7784 6.02267C23.5048 4.71896 26.0667 3.33118 28.3605 2.524C29.1675 2.24963 31.3568 1.89692 32.8732 1.86418L34.8237 1.82213C35.1762 1.8177 35.2228 1.98409 35.1191 2.26554C34.7718 3.21124 34.6328 5.25486 34.4241 6.62715C34.323 7.28962 34.1687 7.44673 33.5024 7.45204C30.87 7.47461 23.812 7.98794 23.8443 7.85961ZM10.5667 11.1552C13.0671 11.1552 15.0938 13.2134 15.0938 15.7526C15.0938 18.2914 13.0671 20.3501 10.5667 20.3501C8.06676 20.3501 6.03961 18.2914 6.03961 15.7526C6.03961 13.2134 8.06676 11.1552 10.5667 11.1552Z" fill="#2E3B54"/>
</svg>
