<svg width="70" height="28" viewBox="0 0 70 28" fill="none" xmlns="http://www.w3.org/2000/svg">
<path fill-rule="evenodd" clip-rule="evenodd" d="M67.574 22.3468C67.624 22.3321 67.6735 22.32 67.7226 22.3115C68.6243 22.1539 69.0254 22.2573 69.1705 21.0694C69.3441 19.6465 69.2818 17.4085 69.3524 16.5289C69.4011 15.9225 69.3138 15.354 68.6782 15.2188C68.3222 15.1432 67.9536 15.0675 67.9448 14.9122C67.8234 12.7826 67.5095 11.0544 67.0392 9.47613C66.2545 6.84559 65.4563 4.63043 63.9659 1.66196C63.1584 0.0537357 63.4587 0.142363 61.4028 0.141466C54.0051 0.138334 46.2037 0.0743198 38.6933 0.222921C33.6729 0.322289 28.7742 0.355864 26.6841 1.03442C23.9742 2.56521 21.4326 6.32683 19.5306 7.86702C14.6434 8.39608 9.27482 8.77385 4.32402 10.0276C2.57805 10.4698 2.00819 10.5307 1.6746 12.3788C1.47778 13.471 1.44271 14.6678 1.31208 15.3106C1.17707 15.3213 1.08676 15.3164 1.02101 15.3155C0.761938 15.3101 0.702332 15.6145 0.692688 15.9202C0.65762 17.0424 0.560745 19.454 0.749238 20.8281C0.907046 21.9807 1.5602 22.3468 2.54825 22.3468H4.34025C5.74737 22.3468 5.49664 22.2157 5.59483 20.8416C5.87012 16.973 9.03154 13.9212 12.8908 13.9212C16.7453 13.9212 19.9041 16.9654 20.1859 20.8272C20.2951 22.3218 19.9966 22.3468 21.4931 22.3468H50.3045C52.0119 22.3468 51.6788 22.2484 51.8655 20.5479C52.2758 16.8199 55.3741 13.9212 59.1352 13.9212C62.9642 13.9212 66.1064 16.9251 66.4246 20.7503C66.4957 21.6083 66.2668 22.3468 67.1207 22.3468H67.574ZM12.8908 15.4328C16.1136 15.4328 18.7262 18.1005 18.7262 21.3912C18.7262 24.682 16.1136 27.3501 12.8908 27.3501C9.66803 27.3501 7.05542 24.682 7.05542 21.3912C7.05542 18.1005 9.66803 15.4328 12.8908 15.4328ZM59.1352 15.4328C62.358 15.4328 64.971 18.1005 64.971 21.3912C64.971 24.682 62.358 27.3501 59.1352 27.3501C55.9124 27.3501 53.2998 24.682 53.2998 21.3912C53.2998 18.1005 55.9124 15.4328 59.1352 15.4328ZM25.3011 8.87232C25.3366 8.73133 25.5777 8.29044 25.6106 7.73184C25.6658 6.78785 23.9755 6.71759 22.9279 6.78741C24.4332 4.67967 25.7053 3.60588 27.1413 2.40855C28.0908 2.08404 33.6071 1.90411 35.3925 1.86517C36.1574 1.84906 36.9228 1.83249 37.6882 1.81548C38.1029 1.81056 38.1581 2.00705 38.0362 2.34007C37.8315 3.50427 37.4633 5.87923 37.2174 7.50312C37.099 8.28687 36.9171 8.74073 36.1325 8.72775C33.0337 8.89918 25.2634 9.13998 25.3011 8.87232ZM51.2606 7.61368C51.1225 6.23328 50.4216 4.12689 49.9893 2.7268C49.828 2.2049 49.6448 1.6821 49.0605 1.69866C46.102 1.7846 43.4517 1.73089 40.5458 1.81548C40.3135 1.81324 40.0303 1.94842 39.9773 2.08897C39.6489 2.95642 39.5722 4.13808 39.1453 7.70634C39.0287 8.68255 39.0909 8.81548 40.1522 8.80206C42.4759 8.80206 46.8858 8.82174 50.0744 8.72999C51.0304 8.70268 51.3794 8.80519 51.2606 7.61368ZM55.3158 7.72379C54.8161 6.62583 54.0266 4.72085 53.2858 3.00565C52.8571 2.01198 52.8413 1.7 53.9657 1.6821C56.1873 1.64629 60.4209 1.69776 62.0433 1.72641C62.1897 1.72328 62.6114 1.94842 62.6841 2.08897C63.1326 2.95642 63.5674 3.83952 64.8277 7.40778C65.1727 8.38399 65.0013 8.74073 64.3253 8.72775C62.799 8.69821 58.9791 8.73357 56.7185 8.72954C56.0172 8.72864 55.5915 8.32939 55.3158 7.72379Z" fill="#2E3B54"/>
</svg>
