<svg width="72" height="28" viewBox="0 0 72 28" fill="none" xmlns="http://www.w3.org/2000/svg">
<path fill-rule="evenodd" clip-rule="evenodd" d="M71.0503 20.6701C71.2695 19.7662 71.1404 18.3218 71.1738 17.3937C71.2149 16.2473 70.7424 16.6209 70.3149 16.3117C70.2239 14.6923 70.3058 11.973 70.1351 10.3097C69.9359 8.36719 69.3988 8.126 67.3025 8.13047L42.605 8.18551C41.9887 8.18685 41.7552 8.07498 41.6244 7.98325C41.1839 7.67583 40.9128 3.98057 40.4476 1.83491C40.1994 0.691154 40.205 0.125097 38.9693 0.125097H27.9128C26.2669 0.125097 24.6267 0.93771 23.2432 2.09802L16.9399 7.38543C12.201 7.81322 7.2863 8.6406 3.46697 9.66443C2.2698 9.98572 1.7808 10.5562 1.78903 11.9313L1.81545 16.5301C1.63527 16.5457 1.42218 16.5824 1.24547 16.6437C0.874706 16.7722 0.856079 16.9024 0.831391 17.2774C0.811467 17.5758 0.818822 17.9459 0.82272 18.1303C0.839612 18.8655 0.90892 20.9682 1.42608 21.3669C1.67946 21.5624 2.0866 21.7177 2.44393 21.7249L3.58826 21.7486C4.44109 21.5727 4.60524 21.2863 4.76073 20.2943C5.31514 16.7632 8.22663 14.2077 11.7358 14.2193C15.3828 14.2193 18.3796 17.0738 18.7651 20.7368C18.8756 21.7853 19.4174 21.7982 20.1628 21.8072L48.6142 21.8694C49.2132 21.8707 49.3341 21.5221 49.3783 20.9409C49.6654 17.1798 52.7112 14.2193 56.4262 14.2193C60.103 14.2193 63.1245 17.1199 63.4641 20.8268C63.5537 21.8032 63.5386 21.9016 64.3849 21.9034L66.6788 21.9088C67.6585 21.911 70.7866 21.7562 71.0503 20.6701ZM35.1058 7.50714C35.4298 4.75604 35.5783 2.76611 35.707 1.99823C35.7628 1.66263 35.8239 1.44873 36.2246 1.45276H37.9073C38.0402 1.45276 38.1173 1.77136 38.1438 2.26538L38.4067 7.24C38.4703 8.44595 38.346 8.31126 37.7431 8.31126H35.9595C35.0352 8.31126 35.0044 8.36853 35.1058 7.50714ZM22.4515 8.31126C22.0785 8.31126 22.6421 8.07722 22.6702 7.58321C22.7183 6.74866 21.2409 6.68647 20.3248 6.74777L24.1519 3.19479C24.6886 2.69675 25.0438 2.46541 25.7142 2.14993C26.6702 1.70067 27.468 1.45276 28.3247 1.45276H33.8055C34.1681 1.44784 34.1546 1.6058 34.1096 1.9168C33.9467 3.04221 33.6392 6.04299 33.3941 7.44807C33.2736 8.13763 33.1303 8.31126 32.4451 8.31126H22.4515ZM11.7358 15.6973C14.85 15.6973 17.3752 18.3061 17.3752 21.5235C17.3752 24.7413 14.85 27.3501 11.7358 27.3501C8.62121 27.3501 6.09607 24.7413 6.09607 21.5235C6.09607 18.3061 8.62121 15.6973 11.7358 15.6973ZM56.4262 15.6973C59.5404 15.6973 62.0655 18.3061 62.0655 21.5235C62.0655 24.7413 59.5404 27.3501 56.4262 27.3501C53.3115 27.3501 50.7868 24.7413 50.7868 21.5235C50.7868 18.3061 53.3115 15.6973 56.4262 15.6973Z" fill="#2E3B54"/>
</svg>
