<svg width="68" height="29" viewBox="0 0 68 29" fill="none" xmlns="http://www.w3.org/2000/svg">
<path fill-rule="evenodd" clip-rule="evenodd" d="M61.6389 25.6063C62.7697 25.5041 64.3227 25.3936 65.472 25.1696C66.1567 25.0361 66.6979 24.8627 66.9212 24.627C67.6299 23.8792 67.5487 21.5473 67.5367 20.352C67.5334 20.0606 66.8585 20.0601 66.8691 19.7565C66.8497 13.5379 66.7713 9.36038 66.4441 1.65045C66.3699 0.855326 65.7152 0.416298 64.9843 0.35117C64.1557 0.277609 63.3515 0.302904 61.4709 0.3104L23.5969 0.499226C20.9384 0.514688 19.0855 0.585907 16.8359 2.22066C14.5336 3.89291 12.8408 7.40419 11.8442 9.38521C9.65266 10.1667 6.3003 11.1797 3.23259 12.2972C2.46994 12.5751 1.79355 12.7367 1.6616 13.6757C1.55272 14.4521 1.55272 15.7101 1.5518 16.6458C1.55041 17.9189 1.63023 18.8236 1.48858 19.2411C1.38247 19.5522 0.720853 19.3132 0.562601 19.6445C0.444949 19.8919 0.510462 20.2213 0.484625 20.627C0.426491 21.5454 0.439413 22.7561 0.643804 23.5808C0.839428 24.3707 1.0189 24.754 1.36263 25.045C1.62515 25.268 1.93704 25.4386 2.30707 25.4521L4.26101 25.5248C5.12794 25.4531 4.84142 25.312 4.71224 24.2124C4.68317 23.9631 4.66795 23.7087 4.66795 23.451C4.66795 19.9331 7.47589 17.0815 10.9395 17.0815C14.403 17.0815 17.211 19.9331 17.211 23.451C17.211 24.024 17.1362 24.5792 16.9969 25.1078C16.6956 26.2459 16.6615 26.3653 17.9293 26.3639L48.2322 26.3293C48.7208 26.3288 48.9921 26.3189 49.0926 26.1756C49.1914 26.035 49.1254 25.6747 48.9685 25.0651C48.8361 24.5497 48.7651 24.009 48.7651 23.451C48.7651 19.9331 51.573 17.0815 55.0366 17.0815C58.5001 17.0815 61.3085 19.9331 61.3085 23.451C61.3085 23.9781 61.2449 24.4902 61.1258 24.9808C61.0174 25.4268 61.1817 25.6471 61.6389 25.6063ZM16.0875 10.7627C16.1184 10.6217 16.2845 10.0871 16.314 9.52484C16.3643 8.57463 14.8925 9.09752 13.9444 9.1678C14.7292 7.57147 15.8305 5.32385 17.1994 3.87089C18.5153 2.47462 19.9732 2.22769 21.8543 2.21973L24.9178 2.20567C25.2934 2.20052 25.4323 2.39029 25.3829 2.74216C25.2173 3.91821 25.0438 7.05091 24.6954 8.68567C24.5298 9.46392 24.0601 9.65556 23.3621 9.78769C20.5573 10.3186 16.0534 10.9155 16.0875 10.7627ZM10.9395 18.5519C13.6039 18.5519 15.7636 20.7451 15.7636 23.4505C15.7636 26.1564 13.6039 28.3501 10.9395 28.3501C8.275 28.3501 6.11528 26.1564 6.11528 23.4505C6.11528 20.7451 8.275 18.5519 10.9395 18.5519ZM55.0075 18.5519C57.6715 18.5519 59.8317 20.7451 59.8317 23.451C59.8317 26.1564 57.6715 28.3501 55.0075 28.3501C52.343 28.3501 50.1833 26.1564 50.1833 23.451C50.1833 20.7451 52.343 18.5519 55.0075 18.5519Z" fill="#2E3B54"/>
</svg>

