<svg width="62" height="21" viewBox="0 0 62 21" fill="none" xmlns="http://www.w3.org/2000/svg">
<path fill-rule="evenodd" clip-rule="evenodd" d="M49.5345 11.1905C52.0344 11.1905 54.0611 13.2408 54.0611 15.7703C54.0611 18.2993 52.0344 20.3501 49.5345 20.3501C47.0341 20.3501 45.0069 18.2993 45.0069 15.7703C45.0069 13.2408 47.0341 11.1905 49.5345 11.1905ZM47.0023 6.44314C47.1435 7.21372 47.082 7.08897 47.9091 7.06076L57.172 6.8906C58.1764 6.39775 56.5454 2.36545 56.4883 2.11153C56.4382 1.88847 56.1013 1.84571 55.5675 1.84615L47.0572 1.85717C46.2127 1.85849 46.2249 2.1825 46.3395 2.81069L47.0023 6.44314ZM45.5564 6.24918L45.0383 3.29076C44.9198 2.61364 44.9742 1.75887 44.2753 1.77077L37.2513 1.89331C36.7672 1.88758 36.8151 1.84483 36.68 2.4329C36.5366 3.05712 36.3606 4.3752 36.0617 6.85091C35.9623 7.67262 36.0155 7.45002 36.9166 7.439L44.6862 7.2556C45.8018 7.22915 45.7516 7.36581 45.5564 6.24918ZM56.5454 17.7972C57.4644 17.7258 58.5059 17.6381 59.3273 17.4953C59.9692 17.3842 60.4772 17.2387 60.6868 17.0417C61.3522 16.4166 61.276 14.4672 61.2642 13.4678C61.2616 13.2245 60.6524 13.224 60.638 12.9706C60.5596 11.6075 60.4672 10.1153 60.3317 8.69404C60.3143 8.50845 60.2955 8.32374 60.2763 8.14123L57.9254 1.23869C57.7903 0.841942 57.613 0.745392 57.2264 0.612701C57.0826 0.566414 56.5598 0.587124 55.1867 0.582716C48.1174 0.560234 40.2985 0.467232 33.2288 0.750246C31.2587 0.829155 29.3571 0.973742 27.8402 1.44852C24.2234 2.61143 20.9282 4.71244 17.4975 6.35102C13.346 6.7967 8.73654 7.6497 4.53104 8.70506C3.1706 9.04582 2.57796 9.68372 2.16007 10.5019C1.7047 11.3941 1.48856 12.2308 1.28027 12.7374C0.946915 12.7651 0.934263 12.6796 0.828809 12.8767C0.718127 13.0834 0.780018 13.3589 0.755616 13.6979C0.70071 14.4659 0.713344 15.4776 0.904642 16.1666C1.08853 16.8278 1.25717 17.1479 1.5792 17.3912C1.82583 17.5773 2.11822 17.7205 2.46552 17.7316L4.00638 17.7827C4.92583 17.6112 4.75239 17.4917 4.694 16.3085C4.68528 16.1313 4.68136 15.9515 4.68136 15.7703C4.68136 12.4821 7.3164 9.81639 10.5667 9.81639C13.817 9.81639 16.4521 12.4821 16.4521 15.7703C16.4521 16.1049 16.4455 16.4333 16.4233 16.7525C16.2852 18.7468 16.1017 18.4025 17.8896 18.4929L42.5828 18.4655C43.8971 18.2822 43.8221 18.4497 43.6848 16.7789C43.6578 16.4509 43.6487 16.1141 43.6487 15.7703C43.6487 12.4821 46.2837 9.81639 49.5345 9.81639C52.7848 9.81639 55.4198 12.4821 55.4198 15.7703C55.4198 16.0524 55.412 16.3332 55.3902 16.6101C55.2852 17.9771 55.663 17.8656 56.5454 17.7972ZM23.8443 7.9076C23.8739 7.78945 24.0291 7.34245 24.0569 6.87252C24.104 6.07814 22.6682 6.01908 21.7784 6.07771C23.5044 4.77902 26.0667 3.39656 28.3605 2.59249C29.1671 2.31917 31.3568 1.96782 32.8732 1.9352L34.8237 1.89331C35.096 1.89022 35.1779 2.08067 35.1191 2.33503C34.9753 2.95792 34.6328 5.31285 34.4236 6.67987C34.323 7.3398 34.1687 7.4963 33.502 7.50159C30.8696 7.52407 23.8121 8.03544 23.8443 7.9076ZM10.5667 11.1905C13.0671 11.1905 15.0938 13.2408 15.0938 15.7703C15.0938 18.2993 13.0671 20.3501 10.5667 20.3501C8.06634 20.3501 6.03962 18.2993 6.03962 15.7703C6.03962 13.2408 8.06634 11.1905 10.5667 11.1905Z" fill="#2E3B54"/>
</svg>

