<svg width="230" height="196" viewBox="0 0 230 196" fill="none" xmlns="http://www.w3.org/2000/svg">
<g clip-path="url(#clip0_3492_11188)">
<path d="M194.151 130.099C194.151 134.241 190.793 137.599 186.651 137.599H7.99999C3.85786 137.599 0.5 134.241 0.5 130.099V8.00001C0.5 3.85787 3.85786 0.5 8 0.5H186.651C190.793 0.5 194.151 3.85787 194.151 8V130.099Z" fill="white" stroke="#3F3D56"/>
<path d="M15.8556 56.7197C15.3526 56.7197 14.8702 56.9193 14.5145 57.2745C14.1588 57.6298 13.959 58.1116 13.959 58.614C13.959 59.1164 14.1588 59.5982 14.5145 59.9534C14.8702 60.3086 15.3526 60.5082 15.8556 60.5082H81.5897C82.0921 60.5073 82.5736 60.3073 82.9285 59.9521C83.2834 59.597 83.4827 59.1157 83.4827 58.614C83.4827 58.1122 83.2834 57.6309 82.9285 57.2758C82.5736 56.9207 82.0921 56.7207 81.5897 56.7197H15.8556Z" fill="#00B3DE"/>
<path d="M15.8557 68.085C15.3527 68.0839 14.8698 68.2825 14.5134 68.6369C14.157 68.9914 13.9561 69.4728 13.9551 69.9752C13.954 70.4776 14.1528 70.9598 14.5078 71.3158C14.8627 71.6718 15.3447 71.8724 15.8477 71.8734H81.6384C82.1414 71.8734 82.6238 71.6739 82.9795 71.3186C83.3352 70.9634 83.535 70.4816 83.535 69.9792C83.535 69.4768 83.3352 68.995 82.9795 68.6398C82.6238 68.2845 82.1414 68.085 81.6384 68.085H15.8557Z" fill="#00B3DE"/>
<path d="M15.8557 79.2881C15.3527 79.287 14.8698 79.4856 14.5134 79.8401C14.157 80.1946 13.9561 80.6759 13.9551 81.1783C13.954 81.6807 14.1528 82.1629 14.5078 82.5189C14.8627 82.8749 15.3447 83.0755 15.8477 83.0766H30.6525C31.1555 83.0766 31.638 82.877 31.9936 82.5218C32.3493 82.1665 32.5491 81.6847 32.5491 81.1823C32.5491 80.6799 32.3493 80.1981 31.9936 79.8429C31.638 79.4877 31.1555 79.2881 30.6525 79.2881H15.8557Z" fill="#00B3DE"/>
<path d="M194.651 135.099C194.651 136.756 193.308 138.099 191.651 138.099H2.99999C1.34314 138.099 0 136.756 0 135.099V3.00001C0 1.34315 1.34315 0 3 0H191.651C193.308 0 194.651 1.34315 194.651 3V135.099ZM3.19975 131.903C3.19975 133.56 4.54289 134.903 6.19975 134.903H188.451C190.108 134.903 191.451 133.56 191.451 131.903V6.19577C191.451 4.53892 190.108 3.19577 188.451 3.19577H6.19975C4.5429 3.19577 3.19975 4.53892 3.19975 6.19577V131.903Z" fill="#3F3D56"/>
<path d="M133.405 107.754C132.5 107.753 131.632 108.11 130.992 108.748C130.351 109.385 129.99 110.251 129.988 111.154C129.986 112.057 130.344 112.924 130.982 113.565C131.619 114.205 132.486 114.566 133.39 114.569H165.966C166.414 114.569 166.858 114.481 167.273 114.31C167.687 114.139 168.063 113.888 168.38 113.572C168.698 113.255 168.949 112.88 169.121 112.466C169.293 112.052 169.381 111.609 169.381 111.161C169.381 110.714 169.293 110.27 169.121 109.857C168.949 109.443 168.698 109.067 168.38 108.751C168.063 108.434 167.687 108.183 167.273 108.012C166.858 107.841 166.414 107.753 165.966 107.754H133.405Z" fill="#E4E4E4"/>
<path d="M133.405 66.4907C132.5 66.4895 131.632 66.8469 130.992 67.4845C130.351 68.1221 129.99 68.9876 129.988 69.8909C129.986 70.7942 130.344 71.6612 130.982 72.3015C131.619 72.9418 132.486 73.3029 133.39 73.3054H165.966C166.414 73.3059 166.858 73.2181 167.273 73.0471C167.687 72.876 168.063 72.6251 168.38 72.3087C168.698 71.9922 168.949 71.6164 169.121 71.2028C169.293 70.7892 169.381 70.3458 169.381 69.8981C169.381 69.4503 169.293 69.007 169.121 68.5934C168.949 68.1797 168.698 67.804 168.38 67.4875C168.063 67.1711 167.687 66.9202 167.273 66.7491C166.858 66.5781 166.414 66.4903 165.966 66.4907H133.405Z" fill="#E4E4E4"/>
<path d="M15.8557 109.333C15.6066 109.332 15.3599 109.38 15.1296 109.475C14.8993 109.57 14.6899 109.709 14.5134 109.885C14.3369 110.06 14.1968 110.269 14.101 110.498C14.0052 110.728 13.9556 110.974 13.9551 111.223C13.9546 111.472 14.0031 111.718 14.0979 111.948C14.1927 112.178 14.332 112.387 14.5078 112.563C14.6835 112.74 14.8923 112.88 15.1222 112.975C15.3521 113.071 15.5986 113.12 15.8477 113.121H81.6384C82.1414 113.121 82.6238 112.921 82.9795 112.566C83.3352 112.211 83.535 111.729 83.535 111.227C83.535 110.724 83.3352 110.243 82.9795 109.887C82.6238 109.532 82.1414 109.333 81.6384 109.333H15.8557Z" fill="#CCCCCC"/>
<path d="M15.8557 120.535C15.6066 120.535 15.3599 120.583 15.1296 120.678C14.8993 120.773 14.6899 120.912 14.5134 121.087C14.3369 121.263 14.1968 121.471 14.101 121.701C14.0052 121.93 13.9556 122.177 13.9551 122.425C13.9546 122.674 14.0031 122.921 14.0979 123.151C14.1927 123.381 14.332 123.59 14.5078 123.766C14.6835 123.942 14.8923 124.082 15.1222 124.178C15.3521 124.274 15.5986 124.323 15.8477 124.324H30.6525C31.1555 124.324 31.638 124.124 31.9936 123.769C32.3493 123.414 32.5491 122.932 32.5491 122.429C32.5491 121.927 32.3493 121.445 31.9936 121.09C31.638 120.735 31.1555 120.535 30.6525 120.535H15.8557Z" fill="#CCCCCC"/>
<path d="M15.8556 97.9668C15.3526 97.9668 14.8702 98.1664 14.5145 98.5216C14.1588 98.8768 13.959 99.3587 13.959 99.861C13.959 100.363 14.1588 100.845 14.5145 101.2C14.8702 101.556 15.3526 101.755 15.8556 101.755H81.5897C82.0921 101.754 82.5736 101.554 82.9285 101.199C83.2834 100.844 83.4827 100.363 83.4827 99.861C83.4827 99.3593 83.2834 98.878 82.9285 98.5229C82.5736 98.1677 82.0921 97.9677 81.5897 97.9668H15.8556Z" fill="#CCCCCC"/>
<path d="M15.8556 15.4722C15.3526 15.4722 14.8702 15.6717 14.5145 16.027C14.1588 16.3822 13.959 16.864 13.959 17.3664C13.959 17.8688 14.1588 18.3506 14.5145 18.7058C14.8702 19.0611 15.3526 19.2607 15.8556 19.2607H81.5897C82.0921 19.2597 82.5736 19.0597 82.9285 18.7046C83.2834 18.3494 83.4827 17.8682 83.4827 17.3664C83.4827 16.8646 83.2834 16.3834 82.9285 16.0282C82.5736 15.6731 82.0921 15.4731 81.5897 15.4722H15.8556Z" fill="#CCCCCC"/>
<path d="M15.8557 26.8379C15.6066 26.8374 15.3599 26.8859 15.1296 26.9806C14.8993 27.0753 14.6899 27.2144 14.5134 27.3899C14.3369 27.5654 14.1968 27.7739 14.101 28.0036C14.0052 28.2332 13.9556 28.4794 13.9551 28.7281C13.9546 28.9769 14.0031 29.2233 14.0979 29.4533C14.1927 29.6834 14.332 29.8925 14.5078 30.0687C14.6835 30.245 14.8923 30.385 15.1222 30.4807C15.3521 30.5763 15.5986 30.6259 15.8477 30.6264H81.6384C81.8875 30.6264 82.1341 30.5774 82.3642 30.4822C82.5943 30.387 82.8034 30.2475 82.9795 30.0716C83.1556 29.8957 83.2953 29.6869 83.3906 29.457C83.4859 29.2272 83.535 28.9809 83.535 28.7321C83.535 28.4834 83.4859 28.2371 83.3906 28.0072C83.2953 27.7774 83.1556 27.5686 82.9795 27.3927C82.8034 27.2168 82.5943 27.0773 82.3642 26.9821C82.1341 26.8869 81.8875 26.8379 81.6384 26.8379H15.8557Z" fill="#CCCCCC"/>
<path d="M15.8557 38.041C15.3527 38.04 14.8698 38.2385 14.5134 38.593C14.157 38.9475 13.9561 39.4289 13.9551 39.9313C13.954 40.4336 14.1528 40.9159 14.5078 41.2719C14.8627 41.6279 15.3447 41.8284 15.8477 41.8295H30.6525C31.1555 41.8295 31.638 41.6299 31.9936 41.2747C32.3493 40.9195 32.5491 40.4376 32.5491 39.9353C32.5491 39.4329 32.3493 38.9511 31.9936 38.5958C31.638 38.2406 31.1555 38.041 30.6525 38.041H15.8557Z" fill="#CCCCCC"/>
<path d="M133.405 25.2598C132.5 25.2585 131.632 25.616 130.992 26.2536C130.351 26.8911 129.99 27.7567 129.988 28.6599C129.986 29.5632 130.344 30.4303 130.982 31.0705C131.619 31.7108 132.486 32.0719 133.39 32.0745H165.966C166.414 32.0749 166.858 31.9871 167.273 31.8161C167.687 31.6451 168.063 31.3941 168.38 31.0777C168.698 30.7612 168.949 30.3855 169.121 29.9719C169.293 29.5582 169.381 29.1149 169.381 28.6671C169.381 28.2194 169.293 27.776 169.121 27.3624C168.949 26.9488 168.698 26.573 168.38 26.2566C168.063 25.9401 167.687 25.6892 167.273 25.5182C166.858 25.3471 166.414 25.2593 165.966 25.2598H133.405Z" fill="#E4E4E4"/>
<path d="M140.267 34.7453C143.646 34.7453 146.385 32.0095 146.385 28.6346C146.385 25.2598 143.646 22.5239 140.267 22.5239C136.888 22.5239 134.148 25.2598 134.148 28.6346C134.148 32.0095 136.888 34.7453 140.267 34.7453Z" fill="#CACACA"/>
<path d="M150.96 71.3757C150.892 71.8663 150.933 72.3657 151.079 72.8388C151.225 73.312 151.474 73.7473 151.807 74.1141C152.14 74.481 152.549 74.7705 153.006 74.9622C153.464 75.1539 153.957 75.2431 154.453 75.2236L157.702 82.2511L162.459 81.3207L157.731 71.461C157.643 70.6319 157.254 69.8638 156.637 69.3023C156.02 68.7408 155.218 68.4248 154.383 68.4143C153.549 68.4038 152.739 68.6995 152.108 69.2453C151.477 69.7911 151.069 70.5491 150.96 71.3757V71.3757Z" fill="#FFB6B6"/>
<path d="M183.873 97.9694L170.617 91.4205L161.263 75.5642L154.724 78.7231L163.21 97.0406L184.646 109.4L183.873 97.9694Z" fill="#3F3D56"/>
<path d="M153.945 191.705L149.778 191.705L147.795 179.705L153.946 179.705L153.945 191.705Z" fill="#FFB6B6"/>
<path d="M155.007 195.739L141.57 195.739V195.569C141.57 194.184 142.121 192.855 143.102 191.876C144.083 190.896 145.413 190.346 146.8 190.346H146.801L155.007 190.346L155.007 195.739Z" fill="#2F2E41"/>
<path d="M195.543 184.071L192.635 187.053L182.645 180.099L186.936 175.698L195.543 184.071Z" fill="#FFB6B6"/>
<path d="M199.175 186.126L189.8 195.739L189.678 195.621C188.685 194.654 188.116 193.333 188.098 191.948C188.08 190.563 188.613 189.227 189.581 188.235L189.581 188.234L195.307 182.363L199.175 186.126Z" fill="#2F2E41"/>
<path d="M159.097 120.288H156.215C148.722 128.465 143.003 138.101 139.416 148.591L135.973 158.659L148.244 184.321L155.901 184.457L147.149 157.213L155.967 145.535L156.411 169.011L184.791 183.868L190.47 175.488L167.377 162.876L171.31 142.907C171.31 142.907 179.223 136.317 174.615 126.015L159.097 120.288Z" fill="#2F2E41"/>
<path d="M197.03 94.155L185.053 88.916L171.871 94.7502C171.871 94.7502 168.138 96.8709 170.517 102.303L156.215 120.288C156.215 120.288 156.241 120.295 174.216 126.015L190.433 111.751C192.896 109.585 194.786 106.847 195.937 103.778C197.087 100.709 197.463 97.4036 197.03 94.155V94.155Z" fill="#3F3D56"/>
<path d="M195.02 88.7611C199.631 88.7611 203.369 85.028 203.369 80.423C203.369 75.818 199.631 72.085 195.02 72.085C190.41 72.085 186.672 75.818 186.672 80.423C186.672 85.028 190.41 88.7611 195.02 88.7611Z" fill="#FFB6B6"/>
<path d="M205.831 69.3583C203.915 67.8015 200.943 67.4616 198.965 68.939C195.516 67.1306 190.854 68.0739 188.381 71.0807C187.491 72.1627 186.86 73.6265 187.301 74.9558C187.741 76.2852 189.64 77.0666 190.63 76.075L190.612 76.4835C191.504 77.3752 192.122 78.5025 192.394 79.733C192.666 80.9635 192.58 82.246 192.148 83.4297C191.715 84.6135 190.953 85.6492 189.951 86.4152C188.949 87.1812 187.749 87.6456 186.492 87.7538C189.228 88.8576 191.964 89.9613 194.699 91.0651C195.85 91.5295 197.038 92.0013 198.28 91.995C199.521 91.9886 200.844 91.3862 201.326 90.2435C201.672 91.3038 202.019 92.3642 202.365 93.4246C204.404 90.1845 206.081 86.7309 207.367 83.1257C208.195 80.8017 208.865 78.3713 208.775 75.9061C208.686 73.4409 207.747 70.9151 205.831 69.3583Z" fill="#2F2E41"/>
<path d="M140.267 117.24C143.646 117.24 146.385 114.504 146.385 111.129C146.385 107.754 143.646 105.019 140.267 105.019C136.888 105.019 134.148 107.754 134.148 111.129C134.148 114.504 136.888 117.24 140.267 117.24Z" fill="#CACACA"/>
<path d="M159.302 76.009C162.681 76.009 165.42 73.2731 165.42 69.8983C165.42 66.5235 162.681 63.7876 159.302 63.7876C155.923 63.7876 153.184 66.5235 153.184 69.8983C153.184 73.2731 155.923 76.009 159.302 76.009Z" fill="#00B3DE"/>
<path d="M159.458 67.9807C159.39 68.4713 159.431 68.9707 159.577 69.4438C159.723 69.9169 159.972 70.3523 160.305 70.7191C160.638 71.086 161.047 71.3755 161.504 71.5672C161.962 71.7588 162.455 71.8481 162.951 71.8286L166.2 78.8561L170.957 77.9257L166.229 68.0659C166.141 67.2369 165.752 66.4688 165.135 65.9073C164.518 65.3458 163.716 65.0298 162.881 65.0193C162.047 65.0088 161.237 65.3045 160.606 65.8503C159.975 66.3961 159.566 67.1541 159.458 67.9807V67.9807Z" fill="#FFB6B6"/>
<path d="M192.372 94.5747L179.115 88.0257L169.761 72.1694L163.223 75.3283L171.708 93.6458L193.144 106.005L192.372 94.5747Z" fill="#3F3D56"/>
<path d="M229.66 196H100.156C100.066 196 99.9797 195.964 99.916 195.901C99.8522 195.837 99.8164 195.751 99.8164 195.661C99.8164 195.571 99.8522 195.484 99.916 195.421C99.9797 195.357 100.066 195.321 100.156 195.321H229.66C229.751 195.321 229.837 195.357 229.901 195.421C229.964 195.484 230 195.571 230 195.661C230 195.751 229.964 195.837 229.901 195.901C229.837 195.964 229.751 196 229.66 196Z" fill="#CACACA"/>
</g>
<defs>
<clipPath id="clip0_3492_11188">
<rect width="230" height="196" fill="white"/>
</clipPath>
</defs>
</svg>
